<?xml version="1.0" ?><!DOCTYPE svg  PUBLIC '-//W3C//DTD SVG 1.1//EN'  'http://www.w3.org/Graphics/SVG/1.1/DTD/svg11.dtd'><svg enable-background="new 0 0 301.637 505.949" height="505.949" id="Layer_1" overflow="visible" version="1.1" viewBox="0 0 301.637 505.949" width="301.637" xml:space="preserve" xmlns="http://www.w3.org/2000/svg" xmlns:xlink="http://www.w3.org/1999/xlink"><g><g><g><path clip-rule="evenodd" d="M272.517,330.029c0,13.307,0.027,52.844,0.027,52.844H29.054      V65.46h243.49c0,0,29.035,0.107,29.035,0.021V38.795C301.58,17.379,284.24,0,262.841,0H38.758C17.313,0,0,17.379,0,38.795      v428.396c0,21.398,17.313,38.758,38.758,38.758h224.083c21.398,0,38.738-17.359,38.738-38.758c0,0,0-60.182,0-85.787      c0,0.045,0.058-28.518,0.058-51.381C296.647,330.023,278.061,330.029,272.517,330.029z M151.071,468.836      c-13.645,0-24.742-11.105-24.742-24.77c0-13.645,11.098-24.715,24.742-24.715c13.606,0,24.694,11.07,24.694,24.715      C175.765,457.73,164.677,468.836,151.071,468.836z M212.583,197.896v49.539c0,6.404,5.185,11.583,11.588,11.583      c6.396,0,11.575-5.178,11.575-11.583v-49.539c0-6.396-5.179-11.582-11.575-11.582      C217.767,186.314,212.583,191.5,212.583,197.896z M177.395,139.971l2.175-3.266l2.146-3.219l4.806-7.22      c0.595-0.892,0.355-2.088-0.525-2.677c-0.898-0.6-2.094-0.355-2.677,0.537l-5.167,7.744l-2.169,3.254l-2.204,3.301      c-6.969-2.706-14.754-4.222-22.965-4.222c-8.205,0-15.984,1.517-22.96,4.222l-2.198-3.301l-2.163-3.254l-5.161-7.744      c-0.602-0.887-1.797-1.126-2.683-0.537c-0.886,0.589-1.126,1.785-0.536,2.677l4.805,7.22l2.158,3.219l2.163,3.266      c-16.382,7.623-27.461,22.079-27.461,38.624h108.083C204.862,162.049,193.776,147.593,177.395,139.971z M127.663,163.158      c-3.207,0-5.791-2.596-5.791-5.791c0-3.201,2.584-5.791,5.791-5.791c3.196,0,5.785,2.59,5.785,5.791      C133.448,160.562,130.859,163.158,127.663,163.158z M173.984,163.158c-3.202,0-5.791-2.596-5.791-5.791      c0-3.201,2.589-5.791,5.791-5.791c3.195,0,5.79,2.59,5.79,5.791C179.774,160.562,177.179,163.158,173.984,163.158z       M204.862,271.246v-84.932H96.779v84.932c0,6.742,5.481,12.229,12.218,12.229h8.828c-0.297,1.02-0.467,2.1-0.467,3.209v24.451      c0,6.396,5.191,11.588,11.588,11.588c6.392,0,11.582-5.191,11.582-11.588v-24.451c0-1.109-0.17-2.189-0.461-3.209h21.507      c-0.298,1.02-0.467,2.1-0.467,3.209v24.451c0,6.396,5.196,11.588,11.582,11.588c6.403,0,11.587-5.191,11.587-11.588v-24.451      c0-1.109-0.169-2.189-0.454-3.209h8.817C199.386,283.475,204.862,277.988,204.862,271.246z M65.895,197.896v49.539      c0,6.404,5.178,11.583,11.575,11.583s11.587-5.178,11.587-11.583v-49.539c0-6.396-5.189-11.582-11.587-11.582      S65.895,191.5,65.895,197.896z" fill="#585858" fill-rule="evenodd"/></g></g></g></svg>