<?xml version="1.0" ?><!DOCTYPE svg  PUBLIC '-//W3C//DTD SVG 1.1//EN'  'http://www.w3.org/Graphics/SVG/1.1/DTD/svg11.dtd'><svg height="512px" style="enable-background:new 0 0 512 512;" version="1.1" viewBox="0 0 512 512" width="512px" xml:space="preserve" xmlns="http://www.w3.org/2000/svg" xmlns:xlink="http://www.w3.org/1999/xlink"><g id="media_x2C__social_media__x2C__social__x2C___android__x2C_"><g><path d="M365.116,450.376c-0.306,0.175-0.645,0.239-0.97,0.212c-0.587,0.197-1.745,0.78-3.27,1.613    c-10.526,6.327-20.328,12.192-25.376,15.202c-1.364,0.833-2.281,1.383-2.921,1.741c-0.409,0.249-0.62,0.376-0.62,0.376    l-0.024-0.033c-0.695,0.344-0.88,0.296-1.214,0.212c-0.338-0.085-0.635-0.277-0.846-0.536c-2.018,0.954-2.898,1.119-3.453,0.982    c-0.428-0.112-0.875-0.441-1.091-0.823c-1.102-1.904-1.764-3.053,48.706-34.299c14.667-9.073,29.512-18.101,39.036-23.862    c-22.342,10.94-74.718,43.881-109.131,66.492c-0.37,0.244-0.831,0.329-1.269,0.226c-0.434-0.108-0.81-0.382-1.03-0.771    c-0.25-0.429-0.494-1.152-0.222-2.14c0.287-1.05,1.43-2.503,3.293-4.291c-22.315,12.414-23.933,11.995-24.893,11.751    c-0.508-0.132-0.927-0.442-1.181-0.881c-0.291-0.503-0.569-1.34-0.239-2.479c0.611-2.083,3.622-4.957,8.738-8.594    c-26.918,15.1-28.791,14.619-29.872,14.347c-0.522-0.132-0.95-0.447-1.204-0.89c-0.264-0.455-0.513-1.208-0.222-2.215    c0.315-1.076,1.397-2.423,3.213-4.036c-0.015-0.019-0.028-0.042-0.037-0.061c-0.443-0.757-0.198-1.73,0.546-2.201    c0.37-0.231,30.103-18.82,66.115-40.781c-22.771,13.434-45.853,27.141-65.89,39.097c-0.329,0.249-0.823,0.292-1.247,0.18    c-0.419-0.108-0.78-0.382-0.997-0.759c-0.141-0.243-0.277-0.592-0.302-1.03l-29.072,16.789c-0.777,0.442-1.76,0.188-2.216-0.579    c-0.457-0.767-0.207-1.759,0.55-2.221l53.862-32.874c7.521-4.808,17.536-10.959,30.898-18.857l145.65-88.886L246.644,470.104    c-0.004,0-0.009,0.004-0.014,0.009c-0.768,0.438-1.75,0.193-2.207-0.564c-0.461-0.767-0.226-1.759,0.532-2.229    c0.052-0.033,0.663-0.408,1.773-1.1c-10.965,6.448-20.819,12.253-29.079,17.126c-0.005,0.005-0.005,0.005-0.009,0.009    c-0.771,0.442-1.759,0.188-2.216-0.578c-0.461-0.771-0.206-1.765,0.561-2.23l101.693-61.18l-93.814,54.162    c-5.066,2.931-7.954,4.596-8.086,4.671c-0.781,0.447-1.774,0.179-2.221-0.598c-0.207-0.356-0.263-0.757-0.192-1.134l-0.104,0.063    c-0.776,0.446-1.773,0.183-2.221-0.598c-0.259-0.447-0.508-1.195-0.221-2.22c0.786-2.823,7.492-8.548,18.312-16.237    c-16.999,10.051-32.149,19.03-44.299,26.241c-0.005,0.005-0.005,0.009-0.015,0.009c-0.771,0.447-1.755,0.194-2.211-0.573    c-0.461-0.771-0.212-1.769,0.555-2.229l95.65-57.488c-16.374,9.516-29.413,16.735-39.798,22.253    c-26.125,14.935-43.557,24.798-43.91,25c-0.78,0.442-1.768,0.17-2.215-0.606c-0.447-0.781-0.179-1.769,0.602-2.221l10.118-5.842    c-4.374,1.284-5.838,0.937-6.787,0.705c-1.266-0.301-1.9-1.006-2.207-1.542c-0.221-0.386-0.276-0.837-0.154-1.261    c0.118-0.428,0.39-0.805,0.795-0.992c0.724-0.387,73.368-39.187,144.851-79.695c41.971-23.782,75.334-43.49,99.163-58.575    c28.016-17.733,38.147-26.138,41.717-30.062l-121.99,70.424c-59.863,37.413-126.355,77.376-161.482,93.237l-29.497,17.027    c-0.781,0.456-1.778,0.188-2.23-0.588c-0.361-0.63-0.705-1.688-0.281-3.171c0.084-0.31,0.211-0.635,0.372-0.978    c-14.117,6.891-15.988,6.415-17.1,6.134c-0.803-0.203-1.223-0.683-1.429-1.045c-0.447-0.771-0.188-1.75,0.568-2.206l10.368-6.237    c-3.505,0.894-4.799,0.578-5.673,0.367c-1.266-0.306-1.901-1.007-2.211-1.547c-0.81-1.402-1.105-1.911,17.662-13.279    c-0.08-0.107-0.16-0.23-0.23-0.357c-0.297-0.513-0.578-1.359-0.249-2.54c0.602-2.174,3.649-5.396,8.88-9.571l-14.379,8.301    c-0.781,0.448-1.773,0.184-2.225-0.597c-0.264-0.456-0.518-1.157-0.418-2.099c-19.625,11.135-31.798,18.016-32.122,18.199    c-0.78,0.442-1.77,0.165-2.216-0.616c-0.442-0.771-0.174-1.764,0.603-2.215l29.187-16.845c-0.302-0.131-0.564-0.366-0.744-0.663    c-0.456-0.771-0.202-1.769,0.564-2.225l9.422-5.641c-3.264,1.501-6.185,2.752-8.754,3.755c-4.99,2.258-6.387,2.412-7.088,2.309    c-1.901,0.442-3.34,0.551-4.299,0.311c-1.148-0.286-1.722-0.927-2.005-1.425c-0.216-0.372-0.281-0.95-0.173-1.369    c0.141-0.503,0.319-1.167,4.689-4.289L124.85,443.66c-0.775,0.451-1.768,0.183-2.22-0.589c-0.451-0.775-0.188-1.769,0.584-2.226    l14.195-8.349c-0.88,0.409-1.717,0.531-2.323-0.517c-0.222-0.387-0.438-0.965-0.395-1.727c-0.584,0.08-1.116,0.127-1.6,0.131    c-2.306,1.294-4.332,2.433-6.04,3.393l-6.308,3.641c-0.568,0.329-1.284,0.281-1.806-0.118c-0.527-0.409-0.753-1.087-0.579-1.722    c0.015-0.047,0.028-0.09,0.042-0.132c-8.48,4.534-13.245,6.458-14.896,6.05c-0.579-0.146-1.055-0.494-1.332-0.979    c-0.222-0.385-0.277-0.841-0.155-1.27c0.128-0.424,0.424-0.79,0.814-0.988c9.619-5,19.896-10.371,30.667-16.034    c-0.714,0.065-1.307,0.037-1.772-0.076c-1.119-0.276-1.684-0.902-1.962-1.387c-0.221-0.386-0.273-0.823-0.164-1.224l-1.378,0.795    c-0.772,0.447-1.77,0.185-2.221-0.592c-0.452-0.768-0.197-1.765,0.573-2.216l8.151-4.845c-4.016,1.171-7.318,1.769-9.812,1.716    c-11.637,7.485-22.652,14.606-32.846,21.225c-0.371,0.248-0.832,0.324-1.265,0.22c-0.434-0.103-0.81-0.385-1.03-0.771    c-0.653-1.134-0.768-2.446-0.334-3.904c1.063-3.612,6.096-8.612,14.313-14.741c-0.372-0.117-0.706-0.367-0.917-0.734    c-0.235-0.403-0.457-1.021-0.382-1.848c-9.28,3.824-16.053,5.568-19.633,4.708c-1.506-0.362-2.602-1.124-3.26-2.263    c-0.221-0.386-0.287-0.997-0.165-1.425c0.423-1.472,5.357-4.845,19.126-12.634c0.018-0.523,0.286-1.03,0.762-1.327    c27.103-16.99,219.752-137.428,310.834-186.273l49.225-29.497c-6.712,3.128-16.077,7.975-27.582,14.209L86.041,404.167    c-0.754,0.483-1.76,0.207-2.221-0.564c-0.466-0.762-0.222-1.76,0.541-2.226c0.324-0.197,11.928-7.313,30.889-18.87    c-32.859,18.729-42.253,23.688-45.212,24.929l-0.287,0.166l-0.022-0.043c-0.838,0.329-1.021,0.272-1.2,0.23    c-0.418-0.113-0.795-0.4-1.012-0.776c-0.446-0.772-0.188-1.765,0.584-2.216l18.594-10.959c-1.086-0.283-1.643-0.918-1.919-1.397    c-0.452-0.776-0.188-1.764,0.583-2.22l19.219-11.326c-5.061,2.709-9.722,5.221-13.871,7.46l-21.109,12.191    c-0.781,0.451-1.779,0.184-2.226-0.598c-0.221-0.381-0.282-0.88-0.154-1.308c0.183-0.639,0.939-1.396,5.668-4.152    c-3.35,1.001-5.908,1.34-7.597,0.94c-1.562-0.372-2.352-1.246-2.737-1.915c-0.56-0.959-0.649-2.093-0.273-3.358    c0.664-2.243,3.283-5.348,7.563-9.162c-9.887,3.795-17.079,5.498-20.889,4.609c-1.637-0.387-2.822-1.194-3.518-2.399    c-0.217-0.376-0.273-0.837-0.161-1.256c0.151-0.555,0.254-0.922,8.104-5.568c-0.367-0.32-0.677-0.696-0.926-1.125    c-0.442-0.767-0.188-1.749,0.574-2.21l22.672-13.613c-0.734-0.023-1.402-0.099-2-0.235c-1.819-0.419-3.137-1.307-3.908-2.648    c-0.442-0.771-0.188-1.754,0.569-2.21l207.24-124.324L52.625,357.901c-0.781,0.447-1.773,0.184-2.22-0.598    c-0.208-0.353-0.405-0.94-0.193-1.722c0.23-0.847,0.579-2.121,6.566-6.745c-0.329,0.052-0.611,0.075-0.852,0.085    c-9.482,4.347-15.832,6.298-18.758,5.579c-1.27-0.316-1.91-1.03-2.225-1.576c-0.23-0.4-0.452-1.063-0.207-1.957    c0.71-2.567,7.502-7.991,19.473-15.889c-0.226-0.137-0.423-0.334-0.569-0.574c-0.452-0.775-0.193-1.769,0.579-2.226l12.399-7.342    c2.197-1.557,4.897-3.405,8.222-5.606c-2.399,1.199-4.624,2.29-6.685,3.278l-10.216,5.898c-0.687,0.395-1.548,0.23-2.051-0.353    c-11.562,4.798-14.055,4.182-15.499,3.828c-1.223-0.301-1.834-0.978-2.13-1.495c-0.221-0.381-0.278-0.837-0.16-1.262    c0.122-0.423,0.405-0.762,0.795-0.987c0.226-0.122,6.021-3.245,15.974-8.645c-2.7,0.645-4.901,0.907-6.543,0.747    c-4.248,2.328-6.613,3.622-6.759,3.702c-0.781,0.429-1.76,0.146-2.197-0.635c-0.442-0.776-0.169-1.76,0.607-2.206l4.638-2.682    c-0.104-0.141-0.207-0.287-0.296-0.446c-0.442-0.771-0.188-1.755,0.574-2.211l29.52-17.596c-3.518,1.612-6.749,3.019-9.689,4.199    c-4.37,2.211-8.076,3.909-11.091,5.076l-20.974,12.111c-0.776,0.447-1.769,0.184-2.22-0.593c-0.452-0.775-0.188-1.769,0.583-2.22    l13.4-7.86c-0.179-0.104-0.334-0.216-0.47-0.334c-15.052,7.503-16.797,7.052-17.832,6.788c-0.583-0.151-1.058-0.499-1.335-0.983    c-0.296-0.508-0.579-1.364-0.24-2.555c0.202-0.704,0.475-1.664,1.919-3.405c-3.745,2.084-5.828,3.241-5.96,3.316    c-0.762,0.428-1.726,0.174-2.182-0.574c-0.452-0.747-0.235-1.722,0.494-2.205c2.093-1.388,11.03-7.306,24.878-16.384    c-10.179,5.842-14.394,8.029-16.247,8.665c-0.019,0.009-0.033,0.019-0.042,0.022l-0.004-0.01    c-0.598,0.203-0.936,0.235-1.157,0.189c-0.424-0.118-0.814-0.415-1.03-0.791c-0.221-0.376-0.277-0.828-0.16-1.251    c0.023-0.094,0.061-0.188,0.103-0.272c-0.348,0.174-0.752,0.23-1.133,0.136c-0.433-0.103-0.805-0.381-1.025-0.771    c-0.268-0.461-0.334-1.021-0.184-1.571c0.301-1.102,0.856-3.086,22.413-16.929c0.08-0.226,0.211-0.433,0.386-0.603    c-6.124,2.577-10.306,3.674-12.385,3.161c-1.134-0.287-1.712-0.931-1.994-1.425c-0.038-0.065-0.076-0.137-0.104-0.207    c-1.881,0.423-3.326,0.512-4.309,0.268c-1.195-0.291-1.792-0.964-2.084-1.473c-0.447-0.771-0.193-1.754,0.569-2.21L217.88,161.928    L45.198,261.631c-0.776,0.446-1.769,0.184-2.22-0.583c-0.452-0.777-0.198-1.767,0.569-2.226l5.333-3.182    c-5.104,2.063-6.171,1.792-6.886,1.608c-0.785-0.198-1.195-0.661-1.397-1.019c-0.226-0.386-0.442-1.023-0.202-1.881    c0.211-0.767,1.006-1.797,2.361-3.081c-0.587-0.348-0.945-0.786-1.157-1.153c-0.216-0.378-0.272-0.83-0.155-1.249    c0.075-0.28,0.226-0.529,0.428-0.731c-6.868,4.179-13.608,8.281-20.174,12.295c-0.39,0.217-0.828,0.294-1.251,0.187    c-0.423-0.111-0.786-0.387-1.007-0.767c-0.056-0.092-0.108-0.19-0.151-0.289c-1.18,0.538-1.674,0.601-2.018,0.517    c-0.433-0.108-0.833-0.407-1.054-0.787c-0.447-0.777-0.183-1.77,0.588-2.218l2.733-1.607c1.073-2.25,3.702-5.179,7.658-8.662    c-2.912,1.51-4.835,2.505-5.635,2.917c-0.785,0.402-1.75,0.11-2.173-0.668c-0.428-0.776-0.15-1.748,0.612-2.19l33.109-19.115    c37.221-24.716,99.483-59.671,159.037-91.833c49.676-30.419,92.842-55.831,121.681-70.452c1.34-1.414,2.324-2.672,2.935-3.765    c-14.247,8.229-79.958,46.188-145.678,84.142c-37.127,21.442-74.258,42.884-102.108,58.958    c-13.928,8.039-25.532,14.734-33.655,19.417l-11.924,6.868c-0.184,0.101-0.376,0.211-0.578,0.315l-0.25,0.15l-0.015-0.023    c-0.79,0.351-1.641,0.47-2.234-0.557c-0.442-0.767-0.193-1.75,0.569-2.208l116.858-70.501    c-57.064,32.634-107.823,60.894-108.401,61.223c-0.776,0.431-1.75,0.165-2.197-0.6c-11.642,5.602-17.658,7.688-20.997,8.373    c-1.849,1.082-2.865,1.677-2.954,1.727l-0.029-0.054c-0.706,0.341-0.894,0.299-1.162,0.235c-0.437-0.104-0.813-0.384-1.034-0.774    c-0.282-0.477-0.287-1.042-0.071-1.505c-0.494-0.313-0.8-0.696-0.983-1.014c-0.221-0.381-0.282-0.873-0.16-1.295    c0.348-1.238,1.576-2.176,37.145-21.433C157.245,137.318,283.793,56.605,314.41,52.586c3.928-3.5,6.331-6.345,6.909-8.394    c0.117-0.418,0.122-0.727,0.01-0.925c-0.023-0.035-0.142-0.124-0.442-0.195c-2.38-0.562-7.493,0.896-14.731,3.951    c-27.338,16.075-73.543,43.204-119.573,70.05c-21.054,12.286-39.116,22.79-54.591,31.752    c-31.938,20.292-61.078,39.245-80.834,52.301c-0.385,0.242-0.832,0.332-1.27,0.228c-0.438-0.104-0.814-0.383-1.035-0.772    c-0.272-0.47-0.532-1.258-0.226-2.339c0.221-0.812,0.866-1.816,1.905-3.006c-11.435,6.188-12.075,6.014-12.606,5.875    c-0.419-0.11-0.814-0.409-1.03-0.783c-0.452-0.781-0.184-1.771,0.593-2.223c12.154-7.051,25.028-14.537,38.297-22.272    c19.417-12.938,47.954-30.099,81.402-49.462L42.098,192.82c-0.776,0.45-1.768,0.184-2.22-0.592    c-0.273-0.476-0.339-1.049-0.184-1.616c0.259-0.955,0.715-2.636,14.13-11.794c-0.908,0.336-1.454,0.419-1.788,0.339    c-0.428-0.108-0.866-0.438-1.091-0.818c-0.24-0.419-0.471-1.115-0.207-2.07c0.719-2.613,7.337-8.168,17.996-15.677l-22.653,13.079    c-0.776,0.449-1.773,0.181-2.22-0.597c-0.894-1.55-1.232-2.129,20.837-16.184c-5.08,2.171-8.599,3.212-10.127,2.841    c-0.931-0.226-1.411-0.767-1.651-1.178c-0.216-0.379-0.273-0.833-0.155-1.253c0.118-0.421,0.438-0.762,0.791-0.991    c39.694-21.665,88.448-48.822,130.062-72.813c42.475-25.859,78.633-47.667,79.079-47.933c0.075-0.04,0.146-0.083,0.221-0.111    c5.946-4.073,9.854-7.116,11.219-8.871c-2.126,0.081-7.766,1.855-22.234,9.241c-9.389,14.071-92.979,61.306-171.286,104.833    c-13.81,7.679-26.246,14.591-32.441,18.194c-2.751,1.764-4.29,2.752-4.375,2.811c-0.367,0.237-0.833,0.314-1.265,0.211    c-0.438-0.108-0.804-0.383-1.026-0.769c-0.221-0.376-0.281-0.847-0.164-1.27c0.16-0.572,0.249-0.887,4.953-3.65    c9.059-5.816,27.149-17.38,49.385-31.36c-36.295,20.88-36.803,20.736-37.527,20.548c-0.419-0.115-0.786-0.393-1.002-0.767    c-0.23-0.407-0.456-1.082-0.207-2.004c0.903-3.312,11.783-11.56,27.611-22.077c-0.302-0.16-0.55-0.4-0.725-0.696    c-0.132-0.228-0.264-0.55-0.31-0.945c-9.136,4.812-15.434,7.608-17.08,7.199c-0.56-0.141-1.011-0.478-1.284-0.945    c-0.221-0.378-0.433-1.004-0.212-1.83c1.167-4.33,17.305-13.972,53.868-34.932c23.531-13.49,55.259-31.691,59.571-37.521    c-8.387,1.86-48.857,26.752-84.789,50.628c-0.762,0.487-1.749,0.296-2.248-0.444s-0.305-1.747,0.428-2.255l43.354-29.728    c-5.677,3.307-6.011,3.231-6.707,3.053c-0.424-0.11-0.81-0.402-1.025-0.781c-0.452-0.778-0.184-1.773,0.593-2.223    c0.221-0.125,0.456-0.195,0.691-0.214c1.886-0.79,12.111-6.978,20.371-11.983c23.481-14.224,23.786-14.148,24.915-13.854    c0.429,0.105,0.823,0.404,1.045,0.786c0.424,0.734,0.207,1.674-0.489,2.152l-16.472,11.298c10.973-6.179,19.6-10.301,22.173-9.699    c0.869,0.205,1.322,0.717,1.548,1.11c0.243,0.428,0.488,1.136,0.23,2.093c-0.711,2.625-6.05,6.948-15.339,12.985    c16.754-9.461,31.176-17.34,37.483-20.767c0.771-0.418,1.74-0.148,2.183,0.612c0.441,0.757,0.202,1.731-0.541,2.197    c-9.063,5.68-24.215,15.115-41.271,25.567c28.265-16.623,52.64-30.48,58.882-34.015c0.771-0.438,1.754-0.176,2.2,0.588    c0.452,0.765,0.207,1.75-0.545,2.213c-0.334,0.205-33.698,20.678-67.314,40.713c-28.942,17.249-46.153,27.096-56.488,32.687    c-17.473,11.04-31.114,20.23-37.403,25.63c25.594-14.226,129.122-74.5,186.361-107.938c0.362-0.251,0.818-0.28,1.236-0.165    c0.424,0.108,0.776,0.384,0.993,0.757c0.028,0.047,0.057,0.099,0.085,0.15c11.951-5.938,20.306-9.195,23.188-8.497    c1.054,0.254,1.585,0.849,1.849,1.308c0.217,0.374,0.428,1,0.193,1.834c-0.301,1.077-0.842,2.999-12.987,11.369    c-0.099,0.118-0.216,0.221-0.357,0.306c-0.409,0.263-0.889,0.569-1.435,0.917c-6.411,4.346-15.673,10.269-29.06,18.392    c-35.847,22.547-93.942,58.608-134.446,81.306c-1.157,0.715-2.286,1.418-3.41,2.116l36.421-21.028    c66.887-40.393,152.805-88.51,167.923-96.948c0.776-0.438,1.764-0.162,2.205,0.616c0.442,0.778,0.175,1.766-0.597,2.213    l-166.46,96.106c-55.404,33.352-73.711,46.776-79.36,52.164c10.992-5.898,42.592-25.433,75.758-45.924    c95.589-59.07,169.423-104.075,178.453-101.795c0.904,0.226,1.374,0.752,1.604,1.155c0.221,0.378,0.273,0.823,0.16,1.242    c-0.108,0.414-0.381,0.769-0.752,0.986c-0.006,0.002-0.01,0.002-0.01,0.002C223.793,79.679,99.732,151.869,57.479,180.184    l244.319-141.06c0.78-0.449,1.774-0.181,2.226,0.595c0.705,1.228,1.185,2.051-10.071,9.532c0.701-0.338,1.401-0.67,2.084-0.997    c0.78-0.431,1.547-0.854,2.324-1.284c11.336-6.27,20.611-11.399,25.927-14.389c1.74-1.025,3.419-2.013,5.056-2.977    c0.386-0.205,0.818-0.28,1.237-0.17c0.424,0.108,0.776,0.381,0.993,0.757c0.221,0.381,0.276,0.835,0.164,1.256    c-0.07,0.251-0.122,0.435-0.776,0.908l0.028,0.054c-0.042,0.026-0.386,0.228-1.006,0.595c-0.744,0.467-1.83,1.103-3.411,2.008    c-2.107,1.24-4.92,2.898-8.35,4.916c1.407-0.214,2.551-0.229,3.415-0.024c1.44,0.339,2.159,1.131,2.513,1.736    c0.564,0.985,0.668,2.142,0.301,3.438c-0.475,1.682-1.923,3.774-4.242,6.225c11.081-6.555,19.294-11.441,23.767-14.165    c2.483-1.585,3.857-2.465,3.956-2.531c0.381-0.247,0.833-0.315,1.266-0.211c0.433,0.108,0.8,0.385,1.025,0.769    c0.396,0.687,0.611,1.068-0.602,2.077l0.07,0.108c-0.282,0.184-10.8,6.917-27.879,17.735c0.137,0.357,0.207,0.837,0.048,1.43    c-0.156,0.562-0.377,1.352-2.509,3.316l35.843-20.697c0.776-0.449,1.769-0.188,2.221,0.583c0.451,0.77,0.202,1.759-0.56,2.22    L185.942,145.052c74.671-43.126,150.528-86.946,152.024-87.809c0.371-0.214,0.817-0.275,1.231-0.162    c0.419,0.113,0.771,0.383,0.988,0.757c0.569,0.983,0.663,2.138,0.282,3.438c-0.066,0.232-0.155,0.47-0.259,0.715L345.394,59    c0.55-0.317,1.203-0.277,1.702,0.042c11.406-5.19,19.229-7.686,22.611-6.851c0.974,0.24,1.594,0.701,1.989,1.15    c4.229-1.597,7.243-2.215,9.007-1.79c1.233,0.297,1.858,0.995,2.169,1.529c0.222,0.383,0.434,1.016,0.198,1.858    c-0.729,2.623-8.481,8.419-22.456,17.159c0.118,0.643-0.16,1.32-0.748,1.682c-0.484,0.298-31.486,19.365-73.73,44.986    l94.125-54.342c0.777-0.449,1.76-0.188,2.217,0.581c0.456,0.769,0.202,1.764-0.564,2.222L31.063,277.915    c1.764-0.456,4.336-1.341,8.053-2.916c15.324-8.369,53.316-29.173,98.627-54.413c46.877-28.039,101.375-62.009,146.145-89.923    c80.1-49.93,100.734-62.524,103.627-61.807c0.424,0.11,0.89,0.449,1.115,0.833c0.051,0.099,0.108,0.214,0.159,0.341    c5.89-2.825,9.686-4.106,11.247-3.723c0.842,0.211,1.289,0.713,1.505,1.094c0.447,0.771,0.188,1.75-0.568,2.208L367.397,89.79    c-2.893,1.976-6.045,4.078-9.427,6.286c5.955-2.577,9.991-3.977,12.804-4.701c11.443-6.435,18.166-10.2,18.41-10.336    c0.781-0.435,1.764-0.16,2.211,0.619c0.442,0.776,0.174,1.766-0.602,2.211l-10.659,6.157c13.434-5.871,23.081-8.777,27.545-7.729    c1.511,0.355,2.602,1.103,3.25,2.22c0.222,0.383,0.273,0.837,0.155,1.263c-0.117,0.418-0.409,0.759-0.79,0.985    c-0.391,0.21-16.157,8.711-41.039,22.293c-5.354,3.577-12.062,7.914-20.457,13.196c42.526-25.701,69.596-39.878,76.942-38.086    c1.346,0.329,2.019,1.082,2.353,1.656c0.452,0.776,0.188,1.771-0.583,2.22l-6.355,3.725c0.607-0.054,1.219,0.24,1.548,0.797    c0.456,0.773,0.198,1.764-0.569,2.225l-165.542,98.674c-45.302,28.064-93.001,56.87-131.563,78.418l-11.124,6.637l254.546-146.962    c10.724-7.035,20.87-13.73,30.264-19.972c0.38-0.242,0.837-0.329,1.273-0.226c0.438,0.101,0.814,0.376,1.04,0.769    c0.175,0.311,0.348,0.786,0.269,1.414c0.235,0.137,0.442,0.339,0.588,0.591c0.282,0.491,0.555,1.319,0.226,2.462    c-0.226,0.8-0.555,1.957-2.817,4.342L438.8,97.356c0.004-0.002,0.009-0.009,0.019-0.014c0.762-0.435,1.735-0.195,2.196,0.557    c0.471,0.758,0.24,1.75-0.508,2.228c-0.522,0.332-29.935,19.021-72.423,45.558l53.435-30.85c0.775-0.449,1.768-0.185,2.22,0.586    c0.451,0.776,0.193,1.771-0.574,2.225l-33.717,19.96c30.358-16.908,50.208-27.867,50.636-28.104    c0.781-0.431,1.77-0.153,2.206,0.624c0.438,0.778,0.165,1.764-0.602,2.21l-9.055,5.23c8.123-4.01,13.335-5.861,15.452-5.338    c0.945,0.232,1.435,0.783,1.679,1.204c0.311,0.543,0.611,1.458,0.249,2.733c-1.613,5.682-19.474,18.62-48.227,36.388    l42.512-24.542c0.776-0.449,1.764-0.19,2.216,0.581c0.456,0.771,0.207,1.762-0.561,2.223L74.046,353.922    c0.117,0.033,0.244,0.065,0.376,0.094c1.849,0.428,4.506,0.227,7.87-0.545l289.847-174.004    c17.789-11.181,32.949-20.334,45.315-27.208l13.89-8.337c0.649-0.318,1.322-0.292,1.845,0.113    c10.438-5.014,17.563-7.244,21.18-6.39c1.595,0.379,2.399,1.27,2.795,1.952c0.263,0.454,0.324,1.002,0.184,1.541    c-0.146,0.526-0.805,1.317-1.972,2.378c3.415-2.263,6.755-4.483,10.024-6.654c0.375-0.242,0.836-0.334,1.274-0.23    c0.438,0.104,0.813,0.384,1.04,0.771c0.775,1.353,1.246,2.166-18.101,14.355c2.572-0.91,4.92-1.639,7.018-2.175l10.142-6.037    c0.748-0.393,1.754-0.216,2.22,0.541c0.466,0.757,0.24,1.748-0.508,2.225c-0.103,0.066-1.322,0.845-3.527,2.253    c0.319,0.038,0.62,0.087,0.903,0.155c1.59,0.369,2.747,1.155,3.419,2.331c0.452,0.773,0.188,1.766-0.583,2.215l-16.731,9.814    c0.095,0.014,0.184,0.033,0.273,0.056c1.514,0.358,2.281,1.208,2.652,1.858c0.696,1.202,0.813,2.63,0.357,4.236    c-0.357,1.237-1.124,2.646-2.285,4.216l10.483-6.054c0.776-0.447,1.765-0.181,2.217,0.593c0.451,0.774,0.197,1.769-0.579,2.223    l-15.118,8.911c0.658,0.393,1.186,0.917,1.562,1.573c0.442,0.771,0.188,1.759-0.583,2.218l-35.452,20.899    c-2.257,1.517-4.591,3.066-7.003,4.647c3.767-2.103,7.304-4.074,10.62-5.901c21.778-12.714,42.254-24.673,60.542-35.367    c0-0.003,0-0.003,0.004-0.003c0.776-0.447,1.764-0.188,2.217,0.581c0.456,0.776,0.197,1.771-0.569,2.228l-14.455,8.563    c3.095-1.025,3.956-0.807,4.586-0.647c0.809,0.205,1.224,0.68,1.435,1.044c0.442,0.767,0.188,1.752-0.574,2.21l-26.528,15.896    c5.483-2.227,9.229-3.25,10.875-2.841c0.438,0.111,0.775,0.28,1.039,0.473c18.618-8.509,22.141-7.648,23.998-7.202    c1.374,0.332,2.051,1.089,2.38,1.658c0.264,0.449,0.33,0.988,0.175,1.515c-0.992,3.556-23.769,16.926-80.222,48.145    c-29.125,17.502-68.223,39.279-113.209,63.688c-15.202,9.774-30.526,19.582-45.63,29.14l220.989-127.593    c0.78-0.447,1.769-0.186,2.221,0.588c0.451,0.774,0.197,1.767-0.574,2.223l-27.23,16.146c6.002-2.58,10.983-4.391,14.746-5.303    c7.353-4.93,14.38-9.667,21.035-14.168c0.367-0.268,0.833-0.341,1.274-0.24c0.438,0.101,0.819,0.383,1.045,0.773    c0.54,0.937,0.63,2.035,0.264,3.267c-0.382,1.31-1.459,2.928-3.162,4.821c-1.636,3.596-7.954,8.869-18.527,15.779    c0.118,0.109,0.222,0.235,0.301,0.376c0.028,0.047,0.057,0.092,0.08,0.141c3.613-1.519,6.6-2.571,8.919-3.124    c10.104-6.364,15.997-10.103,16.213-10.24c0.381-0.266,0.832-0.315,1.262-0.209c0.432,0.106,0.798,0.384,1.023,0.765    c0.354,0.614,0.684,1.646,0.26,3.102c-1.124,3.847-8.702,10.614-20.969,19.44c-0.376,0.327-0.791,0.678-1.247,1.049    c0.038,0.367,0.01,0.79-0.127,1.27c-0.037,0.127-0.089,0.259-0.141,0.397c16.57-9.579,26.74-15.459,27.327-15.797l0,0    c0.777-0.449,1.77-0.186,2.221,0.588c0.452,0.776,0.193,1.771-0.578,2.228l-8.584,5.046c6.486-3.725,10.174-5.839,10.354-5.938    c0.775-0.444,1.768-0.177,2.215,0.602c0.451,0.776,0.183,1.771-0.598,2.22l-113.138,65.323c1.213-0.668,2.44-1.336,3.659-2.009    c25.381-13.909,48.956-26.83,66.007-36.371c27.248-16.943,27.531-16.872,28.519-16.625c0.428,0.105,0.81,0.393,1.03,0.776    c0.165,0.285,0.245,0.656,0.221,1.001c0.645-0.117,1.327,0.165,1.685,0.763c0.465,0.769,0.221,1.769-0.551,2.231    c-0.696,0.421-60.956,36.828-129.563,77.59l-21.869,13.1l151.893-87.698c0.776-0.45,1.774-0.184,2.22,0.597    c0.155,0.261,0.231,0.633,0.226,0.979l3.396-1.961c0.377-0.216,0.818-0.271,1.236-0.165c0.415,0.113,0.772,0.385,0.989,0.76    c0.264,0.456,0.324,1.001,0.173,1.533c-0.512,1.785-6.256,5.805-18.791,13.108c0.151,0.123,0.287,0.273,0.387,0.452    c0.268,0.466,0.334,1.021,0.178,1.571c-0.301,1.11-2.422,3.024-6.57,5.902c2.921-1.043,5.075-1.43,6.425-1.114    c1.157,0.273,1.755,0.937,2.046,1.448c0.451,0.777,0.185,1.774-0.592,2.221c-0.254,0.151-0.509,0.301-0.772,0.452    c0.584-0.043,1.167,0.23,1.496,0.762c0.471,0.753,0.25,1.75-0.498,2.229c-0.264,0.174-9.863,6.364-25.569,16.378    c20.099-10.296,33.589-17.083,36.059-18.325c0.78-0.391,1.727-0.099,2.154,0.663c0.423,0.757,0.169,1.722-0.569,2.178    c-0.113,0.065-1.684,1.035-4.525,2.78c0.198,0.381,0.25,0.902,0.137,1.308c-0.311,1.101-3.043,3.142-13.096,8.933    c-9.957,6.491-25.15,16.359-43.514,28.137l57.767-33.349c0.781-0.452,1.773-0.185,2.225,0.593c0.306,0.531,0.593,1.425,0.24,2.666    c-0.226,0.781-0.555,1.915-2.526,4.121c1.924-1.241,2.982-1.929,3.063-1.985c0.367-0.235,0.833-0.319,1.271-0.216    c0.432,0.107,0.804,0.386,1.029,0.767c0.202,0.357,0.395,0.936,0.188,1.702c-0.306,1.115-0.847,3.096-16.52,13.764l10.381-5.997    c0.776-0.447,1.765-0.188,2.221,0.583c0.451,0.771,0.197,1.759-0.569,2.225l-54.106,32.518    c47.644-27.136,49.215-26.728,50.202-26.469c0.419,0.113,0.852,0.433,1.068,0.81c0.221,0.377,0.276,0.828,0.155,1.246    c-0.117,0.424-0.419,0.767-0.776,0.992c-0.668,0.367-67.226,37.154-133.162,75.477c-92.07,53.485-121.501,74.153-130.354,82.127    L469.374,324.9c0.775-0.447,1.772-0.184,2.225,0.597c0.211,0.367,0.386,0.674,0.239,1.106l0.683-0.396    c0.775-0.447,1.763-0.184,2.221,0.583c0.451,0.771,0.201,1.765-0.565,2.22l-44.427,26.731    c44.178-25.287,45.278-24.995,46.158-24.761c0.424,0.108,0.818,0.404,1.034,0.781c0.447,0.771,0.188,1.76-0.583,2.215    l-1.383,0.819c0.494,0.184,0.895,0.508,1.143,0.936c0.442,0.771,0.193,1.745-0.56,2.211l-73.354,44.766    c36.083-19.991,65.062-35.607,65.443-35.819c0.785-0.419,1.764-0.136,2.196,0.645c0.433,0.776,0.16,1.754-0.611,2.202    l-31.252,18.042c0.34,0.146,0.649,0.415,0.828,0.72c0.019,0.033,0.033,0.063,0.052,0.095c15.494-7.986,17.391-7.512,18.405-7.257    c0.612,0.149,1.106,0.512,1.397,1.015c0.31,0.537,0.603,1.426,0.254,2.634c-1.35,4.634-13.565,13.017-34.069,24.78    c-3.419,2.488-8.923,6.171-17.624,11.797c-5.546,3.584-12.121,7.765-19.69,12.521l45.861-26.472    c0.781-0.452,1.774-0.185,2.22,0.592c0.123,0.212,0.203,0.434,0.255,0.669c0.804-0.457,1.472-0.833,1.985-1.121    c0.771-0.432,1.749-0.168,2.2,0.598c0.447,0.764,0.202,1.751-0.555,2.212c-0.245,0.15-16.082,9.854-37.56,22.832    c11.139-5.989,19.432-9.663,22.062-9.036c0.922,0.216,1.396,0.753,1.632,1.161c0.447,0.771,0.193,1.755-0.569,2.211    c-21.438,12.879-49.201,29.827-69.526,42.695c3.354-2.036,6.723-4.097,9.931-6.063c30.456-18.621,33.654-20.296,35.146-19.915    c0.424,0.108,0.843,0.419,1.063,0.8c0.918,1.59,0.918,1.59-11.21,9.035c-5.724,3.519-13.733,8.379-23.795,14.441    c-0.26,0.15-0.508,0.301-0.758,0.451C365.854,449.661,365.572,450.108,365.116,450.376z M326.028,458.537    c-5.833,3.909-10.678,7.333-14.28,10.127c8.095-5.264,19.322-12.508,31.58-20.24C336.927,452.191,331.183,455.546,326.028,458.537    z M282.298,478.674c5.757-2.281,21.924-11.256,42.852-23.383c6.1-4.115,13.047-8.593,20.427-13.222l-62.625,36.157    c-0.126,0.075-0.268,0.131-0.404,0.164C282.458,478.49,282.373,478.584,282.298,478.674z M330.521,445.344    c0.785-0.419,1.59-0.843,2.394-1.271c2.413-1.478,4.821-2.954,7.22-4.427C336.795,441.632,333.592,443.527,330.521,445.344z     M260.03,481.006c10.095-4.007,48.717-26.368,91.045-51.646c-8.156,4.261-16.708,8.729-25.174,13.198    c-21.506,12.089-41.087,22.832-53.313,29.492C266.413,475.856,261.968,478.955,260.03,481.006z M427.609,383.01    c0.372-0.212,0.804-0.272,1.213-0.169c0.288,0.074,0.547,0.221,0.753,0.428c20.734-12.253,25.217-16.98,26.068-18.702    c-2.653,0.517-9.018,3.49-18.063,8.278c-5.065,5.79-22.366,17.268-44.323,30.616c2.465-1.316,4.888-2.624,7.272-3.914    c9.417-5.724,18.527-11.288,27.042-16.519C427.581,383.023,427.6,383.014,427.609,383.01z M323.582,440.099    c39.619-22.3,78.857-45.269,98.806-58.946c-26.877,15.051-65.813,38.354-103.759,61.566    C320.252,441.857,321.903,440.987,323.582,440.099z M231.319,446.021l102.822-59.366c2.263-1.378,4.549-2.774,6.863-4.186    c-0.771,0.438-1.539,0.871-2.319,1.307c-59.868,33.872-119.846,66.201-137.033,75.421    C205.971,458.039,214.498,454.703,231.319,446.021z M194.216,452.398l162.193-93.642c24.149-15.07,47.884-30.136,69.188-43.796    c-29.074,17.69-65.4,39.682-101.869,61.453c-69.172,41.295-110.64,65.011-135.654,78.572    C189.959,454.242,192.01,453.377,194.216,452.398z M169.465,466.688l10.038-5.795c-1.274,0.272-2.39,0.419-3.325,0.433    c-1.379,0.716-2.678,1.387-3.909,2.018C171.036,464.591,170.095,465.71,169.465,466.688z M184.696,453.137    c41.109-22.258,112.286-64.233,184.022-107.471c-8.519,4.643-17.295,9.441-26.19,14.333c-6.523,4.026-13.118,8.081-19.718,12.121    c-67.559,41.374-107.86,64.229-132.122,76.771C188.558,450.362,186.554,451.777,184.696,453.137z M161.022,465.343    c2.779-1.307,6.011-2.911,9.642-4.779c0.405-0.395,0.828-0.795,1.279-1.208c-0.079-0.146-0.154-0.296-0.211-0.451L161.022,465.343    z M390.681,330.009c3.627-1.972,7.272-3.952,10.917-5.932c9.243-5.02,18.199-9.883,26.543-14.432    c7.687-4.684,15.296-9.332,22.762-13.898c-10.235,5.234-20.932,10.733-31.92,16.43    C410.215,317.723,400.704,323.72,390.681,330.009z M181.069,449.195c-0.319,0.287-0.626,0.569-0.922,0.847l2.018-1.214    C181.793,448.956,181.427,449.078,181.069,449.195z M339.814,357.797c0.23-0.131,0.476-0.268,0.71-0.395    c0.763-0.471,1.533-0.944,2.291-1.415L339.814,357.797z M155.405,460.489c2.423-0.362,7.306-1.844,17.112-6.341    c0.631-1.049,1.552-2.225,2.742-3.504c-1.595,0.23-2.944,0.244-4.026,0.019C163.759,455.197,158.321,458.561,155.405,460.489z     M189.216,442.592c7.409-3.364,16.613-8.27,27.061-14.28l29.126-17.526c17.313-10.763,36.213-22.992,55.169-35.442    C252.43,401.941,210.387,426.688,189.216,442.592z M334.509,356.814c-2.004,1.332-4.008,2.658-6.016,3.989l11.976-7.201    C338.483,354.67,336.488,355.742,334.509,356.814z M177.212,447.06c0.791-0.192,1.642-0.433,2.545-0.72    c1.054-0.917,2.191-1.872,3.424-2.859C181.097,444.722,179.107,445.921,177.212,447.06z M363.094,337.892    c9.717-5.164,19.257-10.192,28.442-15.009l72.847-43.825C434.862,296.165,399.373,316.767,363.094,337.892z M236.987,401.321    c-1.604,0.944-3.194,1.881-4.761,2.813c-55.78,33.039-61.613,40.89-61.534,42.729c0.033,0.038,0.086,0.104,0.18,0.179    c7.229-4.351,16.905-10.108,29.836-17.779c26.637-15.8,63.876-37.664,110.678-64.987c16.6-9.689,33.255-19.397,49.225-28.691    c14.75-9.779,28.207-18.646,40.287-26.492c-12.089,6.764-25.857,14.422-41.421,23.058c-27.894,15.47-58.228,32.31-86.157,48.194    L236.987,401.321z M446.97,284.204c-4.53,2.619-9.864,5.809-16.138,9.693c-5.438,3.363-11.247,7.032-17.366,10.95    c24.374-14.158,43.522-25.264,52.935-30.72C462.651,275.657,456.636,278.63,446.97,284.204z M416.514,293.912l5.488-3.17    c-0.521,0.281-1.053,0.573-1.584,0.86C419.138,292.355,417.849,293.127,416.514,293.912z M164.188,439.596l49.093-28.346    c-18.273,10.415-34.775,19.799-48.326,27.489C164.663,439.049,164.409,439.327,164.188,439.596z M152.546,433.391    c18.443-7.906,93.143-51.068,175.849-100c25.268-15.518,49.962-30.866,71.627-44.365c-4.05,2.224-8.301,4.553-12.756,6.993    c-45.09,24.715-100.537,55.104-146.177,81.172c-30.113,17.771-55.984,33.241-73.322,44.004    c-10.446,6.929-15.126,10.743-17.003,12.837C151.313,433.843,151.906,433.631,152.546,433.391z M147.95,422.742    c8.844-5.085,22.079-12.715,38.273-22.061c-8.616,4.821-17.45,9.756-26.51,14.816c-5.855,3.273-11.279,6.303-16.101,8.998    C144.912,423.998,146.347,423.419,147.95,422.742z M361.861,294.453l70.357-40.622c19.582-12.559,31.821-20.513,32.126-20.715    c0.377-0.228,0.786-0.311,1.195-0.235c3.058-2.519,4.205-3.963,4.469-4.786c-0.362-0.108-0.908-0.129-1.713-0.007    C445.874,242.239,406.249,267.129,361.861,294.453z M236.964,363.334c9.506-5.17,19.698-10.701,30.583-16.6    c5.785-3.137,11.595-6.283,17.403-9.436c8.918-5.348,18.34-11.029,28.321-17.079c53.401-32.381,106.394-65.442,138.543-85.628    c-3.796,1.837-8.335,4.151-13.758,7.049l-34.864,20.47c-10.292,6.167-21.279,12.653-32.767,19.238l-29.444,17.29    c-30.753,18.877-63.571,39.403-93.858,58.346C243.661,359.148,240.279,361.265,236.964,363.334z M472.225,225.607    c0.352,0.271,0.583,0.574,0.733,0.837c0.16,0.275,0.314,0.664,0.357,1.152c3.621-2.999,6.223-5.531,7.662-7.53    C478.625,221.56,475.69,223.415,472.225,225.607z M137.028,418.4c1.35-0.399,3.053-1.002,5.188-1.857    c9.31-5.848,23.646-14.088,43.501-25.118c9.026-5.584,18.424-11.435,27.996-17.404c-7.517,4.281-14.761,8.321-21.68,12.079    L137.028,418.4z M133.798,409.764c4.321-1.232,9.638-3.235,15.784-5.902l34.423-20.447    C164.743,393.593,147.574,402.587,133.798,409.764z M191.601,375.78c17.023-9.017,34.512-18.35,52.027-27.785l80.924-48.067    c-8.528,4.365-17.362,8.885-26.51,13.552c-0.063,0.037-0.133,0.07-0.194,0.103C260.713,335.385,223.723,357.078,191.601,375.78z     M462.379,217.449c0.8,0.35,1.294,0.839,1.595,1.281c2.912-2.295,5.33-4.362,7.216-6.192    C469.086,213.674,466.114,215.332,462.379,217.449z M346.46,285.036c8.453-4.355,16.766-8.66,24.818-12.864l15.742-9.352    c7.738-5.038,15.353-10.025,22.823-14.941C390.943,258.926,369.213,271.678,346.46,285.036z M456.386,220.863    c-3.16,2.115-6.608,4.412-10.329,6.889l12.678-7.534c-0.476,0.036-1.002,0.101-1.567,0.2    C456.909,220.567,456.646,220.715,456.386,220.863z M97.108,425.974c-2.07,1.994-3.49,3.743-4.196,5.222    c1.369-0.891,3.185-2.061,5.404-3.501c-0.399-0.117-0.79-0.413-0.997-0.78C97.15,426.632,97.079,426.302,97.108,425.974z     M224.983,351.011c-11.67,7.276-23.27,14.553-34.672,21.75c17.86-10.4,37.207-21.713,56.953-33.284    C239.767,343.343,232.325,347.19,224.983,351.011z M123.877,411.058c0.785-0.446,1.595-0.903,2.408-1.364    c2.512-1.608,5.118-3.278,7.837-5.019l-10.627,6.299c0.029,0.005,0.058,0.014,0.081,0.018    C123.675,411.016,123.773,411.034,123.877,411.058z M118.74,413.945c0.527-0.296,1.068-0.597,1.613-0.903    c-0.499-0.385-0.907-0.851-1.218-1.396c-0.447-0.772-0.188-1.76,0.574-2.217l34.416-20.399    c-25.234,14.196-44.962,26.411-54.826,34.944C105.528,420.775,112.02,417.427,118.74,413.945z M269.636,324.336    c8.805-4.502,17.699-9.046,26.646-13.612c8.208-4.817,16.331-9.587,24.295-14.268c61.124-35.898,97.832-57.387,119.958-70.2    c-9.106,3.996-20.738,9.833-34.281,17.091L269.636,324.336z M220.345,349.727c0.203-0.104,0.414-0.217,0.621-0.324l2.296-1.355    L220.345,349.727z M115.415,404.523c32.555-16.123,84.229-47.826,136.652-81.124c-5.824,3.128-11.718,6.285-17.662,9.469    l-113.187,67.438C118.989,401.871,117.065,403.273,115.415,404.523z M83.236,415.282c0.104,0.037,0.217,0.07,0.349,0.108    c3.584,0.859,11.054-1.374,21.444-5.974c0.696-0.768,1.533-1.596,2.502-2.489c-0.061-0.07-0.117-0.146-0.174-0.229    c-0.466-0.753-0.239-1.746,0.503-2.226c0.357-0.23,15.095-9.728,38.472-24.591C113.839,397.309,88.373,411.26,83.236,415.282z     M444.834,212.256c18.938-10.783,32.084-18.676,35.537-21.769c-1.797-0.167-6.948,0.703-21.604,7.396    c-0.029,0.172-0.065,0.348-0.122,0.537C457.774,201.451,452.976,206.148,444.834,212.256z M344.552,267.807    c1.209-0.663,2.422-1.326,3.631-1.994c18.65-10.235,37.022-20.315,53.872-29.634c21.552-12.914,38.218-23.775,46.909-31.148    l-93.072,55.455C352.148,262.9,348.361,265.347,344.552,267.807z M226.352,333.319c5.357-3.024,10.856-6.119,16.473-9.257    l111.496-66.43c15.001-9.671,28.097-18.077,39.445-25.292c-28.109,16.013-62.634,36.52-103.029,61.199    C268.816,306.932,246.936,320.475,226.352,333.319z M151.153,373.616c9.567-5.122,20.324-10.865,32.409-17.3    c26.383-16.633,57.376-36.017,89.106-55.523L151.153,373.616z M380.798,236.005c30.217-17.448,51.162-28.73,65.777-35.996    c-6.389,2.665-16.887,7.731-34.022,16.958l-32.216,19.301C380.493,236.179,380.643,236.092,380.798,236.005z M93.124,389.421    c1.102-0.434,2.408-0.987,3.946-1.702l66.374-39.121c3.472-2.211,7.018-4.483,10.635-6.807c-0.498,0.268-0.997,0.536-1.495,0.8    L93.124,389.421z M249.01,297.553c5.085-2.785,10.197-5.603,15.306-8.415l151.412-89.248c2.121-1.435,4.158-2.836,6.125-4.203    L249.01,297.553z M444.006,182.632c-0.719,0.623-1.458,1.256-2.233,1.903l5.089-3.001c-0.286-0.03-0.598-0.044-0.932-0.038    L444.006,182.632z M349.73,233.046l82.178-47.446c-13.561,5.738-33.895,17.079-57.714,31.435    C366.479,222.107,358.276,227.479,349.73,233.046z M189.272,325.69l83.49-48.203c36.685-23.919,72.349-46.871,102.024-64.662    c13.979-9.21,27.384-18.117,39.873-26.487c-6.506,3.356-13.218,6.827-20.094,10.399l-73.214,42.929    c-19.713,12.74-40.033,26.042-59.732,38.935C236.704,294.909,212.151,310.972,189.272,325.69z M414.186,190.543    c13.26-6.844,23.569-11.157,29.915-12.074c4.506-4.151,7.285-7.581,8.02-10.134c0.311-1.093,0.042-1.562-0.047-1.717    c-0.08-0.137-0.277-0.242-0.589-0.318c-1.42-0.336-3.729,0.047-6.833,1.065l-5.87,3.44c0.38,0.116,0.724,0.367,0.939,0.734    c0.438,0.741,0.226,1.693-0.488,2.173C437.224,175.073,428.174,181.202,414.186,190.543z M110.537,370.493    c0.442-0.254,0.885-0.508,1.331-0.763c37.226-21.495,91.013-56.58,141.609-89.689c-56.035,33.834-94.858,56.176-121.858,70.89    l-41.773,24.491c0.009,0,0.019,0.005,0.033,0.005C93.565,376.279,100.696,374.459,110.537,370.493z M76.125,377.591    c-6.228,5.015-9.967,8.919-10.724,11.482c-0.066,0.216-0.151,0.606-0.033,0.813c0.033,0.056,0.146,0.248,0.677,0.376    c4.063,0.969,15.065-3.66,30.691-12.069c-3.203,0.677-5.757,0.832-7.592,0.408c-1.717-0.395-2.959-1.236-3.688-2.507    c-0.307-0.526-0.282-1.156,0.01-1.646l-4.253,2.531c-0.742,0.361-1.604,0.243-2.102-0.387    C78.002,376.993,77.019,377.317,76.125,377.591z M311.428,240.464c-8.448,5.338-17.032,10.746-25.673,16.153    c10.292-6.287,20.532-12.573,30.593-18.775C314.71,238.714,313.069,239.587,311.428,240.464z M433,168.832    c3.579-1.672,6.754-3.006,9.506-3.979l22.239-13.042c-1.35-0.23-3.152-0.122-5.367,0.304    C453.244,156.014,444.228,161.733,433,168.832z M176.271,314.698c-12.131,7.822-24.003,15.518-35.471,23.001l89.268-53.166    C211.352,294.854,193.22,305.008,176.271,314.698z M73.999,374.039c1.312-0.545,2.662-1.133,4.059-1.744    c1.209-0.922,2.483-1.873,3.819-2.846C78.754,371.265,76.11,372.807,73.999,374.039z M273.342,257.279    c8.57-4.631,17.084-9.205,25.447-13.685l28.679-17.08c9.059-5.762,18.053-11.507,26.951-17.21    C330.873,223.305,303.789,239.337,273.342,257.279z M49.625,380.413c0.023,0.005,0.042,0.015,0.065,0.019    c3.034,0.711,8.58-0.456,16.213-3.213c-0.065-0.089-0.118-0.174-0.168-0.258c-0.447-0.775-0.184-1.77,0.592-2.221    c1.223-0.711,2.456-1.43,3.698-2.154c-5.325,2.056-9.544,3.138-12.489,3.114C53.904,377.821,51.223,379.416,49.625,380.413z     M433.786,161.608c-8.025,5.264-17.244,11.292-27.438,17.924l37.423-22.291C440.695,158.502,437.364,159.958,433.786,161.608z     M66.271,370.644c13.293-4.619,36.52-17.573,64.809-34.878c-9.318,4.845-17.856,9.026-25.41,12.394    C89.785,357.187,76.242,364.9,66.271,370.644z M283.304,247.117c-5.936,3.66-11.91,7.356-17.916,11.089    c17.089-10.066,33.891-19.981,50.057-29.549C305.257,234.521,294.541,240.678,283.304,247.117z M102.729,346.091    c11.581-6.581,25.509-14.482,42.264-23.985c20.419-11.575,43.321-24.558,67.164-38.118c16.872-11.054,33.97-22.348,50.645-33.368    c10.015-6.616,19.671-12.989,28.976-19.116L96.572,348.701C98.524,347.906,100.579,347.04,102.729,346.091z M358.62,198.244    c16.661-9.62,32.296-18.338,46.266-25.689c27.004-16.223,45.343-27.905,48.848-31.715c-0.037-0.007-0.074-0.019-0.107-0.026    c-3.764-0.887-13.119,2.839-26.478,9.885c-14.28,9.659-51.11,34.445-95.979,63.648C340.549,208.768,349.73,203.377,358.62,198.244    z M373.291,182.568c-31.257,19.638-68.181,43.998-104.794,68.189c37.475-23.657,75.565-48.474,109.605-71.078L373.291,182.568z     M66.285,366.881c5.113-2.944,11.492-6.585,19.435-11.11c-0.577,0.165-1.142,0.315-1.688,0.456L66.285,366.881z M63.335,347.957    l8.203-4.736c-1.48,0.691-2.822,1.304-4.045,1.84C65.993,346.086,64.61,347.05,63.335,347.957z M151.789,294.171    c13.387-7.634,27.724-16.078,42.634-25.043c-5.517,2.982-11.049,5.965-16.614,8.97C168.76,283.72,160.081,289.086,151.789,294.171    z M292.101,212.105c2.99-1.665,5.973-3.316,8.941-4.974c18.118-10.988,35.461-21.564,51.228-31.216    c-11.754,6.717-23.645,13.531-35.555,20.365C308.718,201.444,300.482,206.743,292.101,212.105z M237.264,242.221    c2.94-1.604,5.89-3.21,8.834-4.819c2.408-1.5,4.803-3.003,7.216-4.513C247.933,236.012,242.565,239.128,237.264,242.221z     M427.351,129.518c2.041-1.155,3.16-1.79,3.259-1.844c0.777-0.435,1.751-0.174,2.202,0.588c0.01,0.007,0.01,0.014,0.014,0.023    c11.925-8.714,13.839-11.926,14.074-12.957c-2.64-0.11-10.602,3.605-22.333,10.041c-0.269,0.388-0.716,0.849-1.321,1.396    c0.39,0.028,0.752,0.078,1.081,0.158c1.304,0.31,2.253,0.962,2.817,1.938C427.261,129.07,427.331,129.292,427.351,129.518z     M38.034,351.438c1.115,0.399,4.473-0.01,14.083-4.337c-0.179,0.015-0.362,0.005-0.541-0.038c-0.438-0.108-0.809-0.38-1.035-0.771    c-0.221-0.381-0.282-0.897-0.16-1.316c0.221-0.772,2.065-2.211,8.523-5.987c0.484-0.312,0.987-0.641,1.51-0.979    c-1.12-0.296-2.022-0.795-2.7-1.481C46.388,343.828,39.286,349.072,38.034,351.438z M98.669,317.055    c11.422-6.19,25.485-13.764,42.781-23.072l74.69-43.665c16.51-10.376,33.254-20.955,49.825-31.418    c6.845-4.325,13.533-8.547,20.039-12.649c-5.706,3.166-11.619,6.442-17.72,9.826c-27.738,15.384-58.443,32.407-88.143,49.067    C151.813,282.958,124.027,300.694,98.669,317.055z M339.946,176.213c-13.146,8.196-26.778,16.76-40.447,25.379l32.413-18.952    c7.047-4.586,14.017-9.137,20.852-13.617C348.681,171.319,344.409,173.713,339.946,176.213z M396.005,144.306    c-3.396,2.257-7.051,4.682-10.936,7.258l36.989-21.628c-0.992,0-2.192,0.155-3.593,0.452    C413.747,133.643,406.357,138.214,396.005,144.306z M60.645,334.646c0.198,0.094,0.447,0.178,0.752,0.249    c0.964,0.221,2.173,0.263,3.598,0.131c12.988-8.452,33.928-22.013,59.371-38.278C98.628,311.519,76.214,324.75,60.645,334.646z     M272.289,210.139c22.591-12.528,45.248-25.101,65.842-36.633c11.976-7.472,23.077-14.351,33.246-20.581L272.289,210.139z     M44.93,328.682c3.391-0.832,9.389-3.07,19.827-8.034l32.253-19.257c-7.027,3.632-13.519,6.821-19.365,9.511    C62.329,319.261,50.852,325.479,44.93,328.682z M73.462,309.477c25.885-14.116,63.703-34.859,104.339-57.56    c21.425-12.843,44.12-26.796,66.966-41.075c-8.029,4.565-16.477,9.351-25.357,14.367c-67.221,37.968-134.794,75.203-163.505,90.97    C60.415,314.961,66.336,312.676,73.462,309.477z M309.631,173.511c-7.343,4.708-14.925,9.556-22.715,14.513l89.526-53.443    c11.646-7.968,17.493-12.733,20.277-15.586l-0.112,0.068C388.931,125.305,367.962,139.419,309.631,173.511z M208.548,227.637    c36.351-20.506,71.073-40.348,100.622-57.618c2.437-1.567,4.863-3.125,7.286-4.685L208.548,227.637z M107.724,277.891    c3.684-1.998,7.488-4.097,11.417-6.278l100.56-59.947l-74.055,42.756C131.651,263.215,118.989,271.062,107.724,277.891z     M55.227,299.194c28.048-14.953,74.022-41.402,126.529-72.303c-29.765,15.758-59.567,31.635-83.453,44.909    C78.999,283.437,64.055,292.882,55.227,299.194z M371.278,117.236c-0.306,0.184-0.617,0.372-0.923,0.562l0.607-0.359    C371.071,117.37,371.17,117.304,371.278,117.236z M403.823,95.709c2.916-1.59,4.529-2.472,4.646-2.536    c0.767-0.418,1.731-0.155,2.178,0.596c0.057,0.099,0.104,0.202,0.141,0.306l11.544-6.767c-2.869,0.569-8.397,2.523-19.003,7.822    c0.183,0.134,0.338,0.304,0.451,0.506C403.794,95.66,403.809,95.684,403.823,95.709z M27.837,312.172    c2.422-0.513,7.813-2.901,15.659-6.868c0.216-0.404,0.592-0.935,1.293-1.664c-0.005-0.25,0.033-0.522,0.117-0.819    c0.95-3.292,11.124-10.399,29.234-21.034c-13.533,7.605-25.142,14.105-34.06,19.097C31.51,307.313,28.552,310.554,27.837,312.172z     M178.735,224.812c7.926-4.2,16.158-8.554,24.682-13.057c6.425-3.394,12.888-6.809,19.341-10.221    c7.78-4.979,15.377-9.833,22.79-14.568C222.424,199.955,199.87,212.722,178.735,224.812z M295.68,158.963    c-1.435,0.903-2.874,1.811-4.313,2.726c2.418-1.454,4.831-2.907,7.244-4.355C297.632,157.879,296.658,158.417,295.68,158.963z     M351.414,124.463c6.58-3.624,12.747-7.014,18.405-10.123c6.566-3.986,13.043-7.921,19.393-11.785    c-8.339,4.565-18.574,10.423-31.185,17.945C355.859,121.794,353.652,123.118,351.414,124.463z M274.419,167.133    c6.523-3.64,12.973-7.227,19.29-10.738c8.146-5.132,15.96-10.035,23.448-14.697C305.036,149.019,290.9,157.441,274.419,167.133z     M71.313,279.683c87.446-49.092,186.973-106.061,250.67-144.692c-9.449,5.211-19.37,10.694-29.619,16.38    c-23.35,13.723-52.954,30.831-90.536,52.211c-28.181,16.033-56.432,31.946-81.737,46.134    C99.747,261.856,83.792,271.706,71.313,279.683z M388.395,94.929c8.368-4.551,14.468-7.849,17.705-9.598    c-3.175-0.329-8.627,1.044-15.969,3.845c0.202,0.153,0.38,0.341,0.507,0.567c0.212,0.374,0.424,1.001,0.193,1.834    C390.676,92.145,390.445,92.962,388.395,94.929z M357.495,111.775c3.891-2.126,7.611-4.163,11.148-6.087    c8.542-5.705,14.482-10.057,17.287-12.749c-1.77,0.731-4.215,1.891-7.269,3.436C376.744,98.482,371.649,102.605,357.495,111.775z     M215.181,190.88c1.458-0.823,2.916-1.648,4.393-2.483c24.088-13.625,48.199-27.105,70.754-39.62    c29.445-17.305,53.617-31.943,68.857-41.933C326.108,125.209,270.284,158.128,215.181,190.88z M28.862,296.813    c8.302-4.585,16.853-9.317,25.574-14.157c13.965-8.166,32.155-18.947,52.31-30.943c19.958-12.841,42.064-26.948,65.005-41.376    l-77.648,44.831C62.094,275.422,37.682,291.127,28.862,296.813z M276.267,149.991c-20.597,12.22-42.474,25.524-64.756,39.301    c65.293-38.803,111.229-65.777,140.11-81.936c-7.775,4.083-16.176,8.643-25.071,13.606L276.267,149.991z M314.988,122.833    c11.271-6.374,21.685-12.253,30.927-17.465c-3.965,1.947-8.442,4.214-13.485,6.851    C326.898,115.625,321.07,119.174,314.988,122.833z M39.586,278.455c6.51-2.29,19.76-8.612,46.303-23.871    c-18.769,10.537-33.853,18.373-44.28,22.771C40.898,277.74,40.231,278.107,39.586,278.455z M301.112,125.552    c2.3-1.291,4.529-2.539,6.693-3.741l59.676-35.873c2.074-1.416,3.919-2.705,5.56-3.878    C354.852,92.412,329.076,108.17,301.112,125.552z M86.938,232.484c3.702-2.053,7.588-4.229,11.642-6.512l158.374-94.547    c-13.438,7.444-27.813,15.376-43.071,23.789c-6.553,3.61-13.237,7.295-19.991,11.025c-2.596,1.477-5.202,2.954-7.785,4.429    C145.143,197.011,111.427,218.324,86.938,232.484z M44.521,253.827c2.85-0.787,8.316-3.259,15.898-7.112    c-5.847,2.74-10.357,4.422-13.457,4.944C45.922,252.486,45.104,253.216,44.521,253.827z M56.012,245.25    c8.104-3.641,21.712-10.823,44.54-24.558c9.755-5.868,20.438-12.472,31.735-19.561c-20.606,11.618-39.21,22.056-53.979,30.325    C69.394,236.759,61.811,241.435,56.012,245.25z M373.39,56.062c0.099,0.358,0.099,0.741-0.01,1.122    c-0.334,1.207-0.982,3.538-30.762,22.061c20.748-12.246,34.793-21.3,37.051-24.68C378.884,54.411,377.152,54.618,373.39,56.062z     M237.053,137.796C302.697,100.006,356,68.292,367.892,58.609c-0.763,0.285-1.638,0.638-2.615,1.059    c-8.143,3.956-20.669,10.792-39.917,22.392c-2.854,1.724-5.799,3.517-8.819,5.365c-10.568,6.961-23.34,14.92-37.54,23.486    C265.468,119.505,251.31,128.605,237.053,137.796z M95.325,217.708c23.552-13.599,54.121-30.635,90.649-50.814    c9.093-5.856,18.247-11.771,27.329-17.642c-34.191,19.478-70.01,39.313-101.017,56.282    c-23.754,14.299-47.141,28.451-69.164,41.842c10.555-5.87,21.543-11.995,32.809-18.297    C81.736,225.607,88.209,221.813,95.325,217.708z M27.955,250.167c-0.348,0.32-0.673,0.633-0.988,0.94l1.317-0.771    C28.171,250.29,28.058,250.238,27.955,250.167z M361.184,57.659c1.51-0.774,2.846-1.456,4.002-2.046    c-1.109,0.259-2.524,0.661-4.321,1.277c0.042,0.052,0.075,0.104,0.108,0.161C361.084,57.245,361.15,57.449,361.184,57.659z     M347.458,62.981l4.214-2.437c-1.213,0.534-2.516,1.122-3.903,1.764C347.688,62.522,347.585,62.744,347.458,62.981z     M330.054,73.031l7.733-4.463c1.628-1.315,2.898-2.425,3.876-3.356c-1.162,0.567-2.365,1.162-3.626,1.794l-3.453,1.992    C333.271,70.256,331.757,71.603,330.054,73.031z M176.699,161.566l73.26-42.295c-11.278,6-22.634,12.079-33.917,18.17    l-3.129,1.804C200.876,146.608,188.736,154.099,176.699,161.566z M40.057,240.457l6.256-3.607c-1.581,0.826-3.1,1.618-4.549,2.375    C41.181,239.641,40.616,240.052,40.057,240.457z M293.944,92.461c5.748-3.008,11.289-5.9,16.575-8.65    c2.583-1.775,5.01-3.479,7.263-5.115L293.944,92.461z M90.594,209.869c6.214-3.309,12.517-6.67,18.871-10.078    c5.418-3.405,10.828-6.804,16.209-10.177L90.594,209.869z M256.677,96.02l24.529-14.167c16.082-9.972,27.959-17.794,33.712-22.399    C299.108,69.451,278.954,82.139,256.677,96.02z M81.68,197.049l59.488-34.342c10.311-6.12,21.5-12.827,33.659-20.188    c-19.412,10.802-39.68,21.914-60.137,33.036c-28.856,16.865-54.055,31.576-70.659,41.265    C52.719,212.672,64.831,206.402,81.68,197.049z M91.12,184.645c6.862-3.708,14.13-7.65,21.689-11.754    c69.13-40.396,144.906-84.745,191.21-112.031c1.876-1.383,3.617-2.7,5.222-3.965C274.381,67.167,163.271,137.707,91.12,184.645z     M64.61,187.448c-3.532,2.566-6.124,4.593-8.02,6.205c4.535-2.976,10.946-7.178,18.811-12.296    C71.384,183.638,67.799,185.661,64.61,187.448z M164.771,121.996c16.241-9.353,33.522-19.167,51.396-29.231    c10.635-6.383,20.988-12.5,30.856-18.175c0.965-0.585,1.929-1.168,2.874-1.743L164.771,121.996z M242.627,65.554    c23.871-13.784,43.975-25.299,55.8-32.058c-19.178,9.132-59.178,32.851-99.248,57.249C214.32,81.925,229.085,73.37,242.627,65.554    z M68.058,152.064c7.286-3.492,17.225-8.829,28.98-15.458c2.789-1.731,5.687-3.523,8.688-5.381    C90.316,139.8,77.112,147.086,68.058,152.064z M98.119,127.192c27.662-15.419,60.377-33.815,88.797-50.678    c31.411-18.648,47.254-29.363,55.127-35.515c-17.883,9.614-45.273,25.386-87.221,51.023    C134.996,104.141,115.298,116.404,98.119,127.192z M88.33,116.545c2.451-1.083,6.247-3.029,11.093-5.659    c4.812-3.063,9.863-6.213,15.07-9.434c-9.394,5.497-18.166,10.501-25.589,14.544C88.697,116.188,88.505,116.369,88.33,116.545z     M69.936,122.086c3.513-1.421,9.708-4.622,17.723-9.062c4.779-4.193,13.372-10.08,23.853-16.703    C94.003,106.392,75.748,117.104,69.936,122.086z" style="fill:#4C993F;"/><g><path d="M133.691,210.687c-8.627,0-15.606,6.908-15.606,15.531v75.389c0,8.552,6.979,15.606,15.606,15.606     c8.617,0,15.569-7.055,15.569-15.606v-75.389C149.261,217.595,142.309,210.687,133.691,210.687z" style="fill:#FFFFFF;"/><path d="M378.272,210.687c-8.589,0-15.57,6.908-15.57,15.531v75.389c0,8.552,6.981,15.606,15.57,15.606     c8.626,0,15.645-7.055,15.645-15.606v-75.389C393.917,217.595,386.898,210.687,378.272,210.687z" style="fill:#FFFFFF;"/><path d="M163.259,210.687c0,0.209,0,0.355,0,0.569v139.086c0,12.902,10.475,23.378,23.377,23.378h25.006     v39.614c0,8.551,6.989,15.603,15.606,15.603c8.622,0,15.607-7.052,15.607-15.603V373.72h26.61v39.614     c0,8.551,6.98,15.603,15.569,15.603c8.622,0,15.603-7.052,15.603-15.603V373.72h25.014c12.931,0,23.406-10.476,23.406-23.378     V211.256c0-0.214-0.038-0.359-0.071-0.569H163.259z" style="fill:#FFFFFF;"/><path d="M301.498,115.985l16.67-31.068l-3.42-1.851l-16.712,31.07     c-12.578-6.416-26.83-10.049-41.931-10.049c-14.318,0-27.86,3.276-39.939,9.118l-16.209-30.139l-3.458,1.851l16.139,30     c-28.814,15.537-48.484,45.819-48.734,80.803h184.473C348.168,161.517,329.283,131.733,301.498,115.985z M208.612,160.165     c-4.808,0-8.797-3.992-8.797-8.763c0-4.847,3.989-8.838,8.797-8.838c4.845,0,8.805,3.991,8.805,8.838     C217.417,156.173,213.457,160.165,208.612,160.165z M302.138,160.165c-4.845,0-8.73-3.992-8.73-8.763     c0-4.847,3.886-8.838,8.73-8.838c4.883,0,8.764,3.991,8.764,8.838C310.901,156.173,307.021,160.165,302.138,160.165z" style="fill:#FFFFFF;"/></g></g></g><g id="Layer_1"/></svg>