<?xml version="1.0" ?><svg enable-background="new 0 0 128 128" id="Слой_1" version="1.1" viewBox="0 0 128 128" xml:space="preserve" xmlns="http://www.w3.org/2000/svg" xmlns:xlink="http://www.w3.org/1999/xlink"><path d="M17,16v96h84V16H17z" fill="#ECEFF1" id="notepad_2_"/><path d="M26,102.5v2c0,0.8-0.7,1.5-1.5,1.5h-3c-0.8,0-1.5-0.7-1.5-1.5v-2c0-0.8,0.7-1.5,1.5-1.5h3  C25.3,101,26,101.7,26,102.5z M26,82.5v2c0,0.8-0.7,1.5-1.5,1.5h-3c-0.8,0-1.5-0.7-1.5-1.5v-2c0-0.8,0.7-1.5,1.5-1.5h3  C25.3,81,26,81.7,26,82.5z M24.5,61h-3c-0.8,0-1.5,0.7-1.5,1.5v2c0,0.8,0.7,1.5,1.5,1.5h3c0.8,0,1.5-0.7,1.5-1.5v-2  C26,61.7,25.3,61,24.5,61z M24.5,42h-3c-0.8,0-1.5,0.7-1.5,1.5v2c0,0.8,0.7,1.5,1.5,1.5h3c0.8,0,1.5-0.7,1.5-1.5v-2  C26,42.7,25.3,42,24.5,42z M24.5,22h-3c-0.8,0-1.5,0.7-1.5,1.5v2c0,0.8,0.7,1.5,1.5,1.5h3c0.8,0,1.5-0.7,1.5-1.5v-2  C26,22.7,25.3,22,24.5,22z" fill="#3E2723" id="Big_hole"/><g id="Spring_2_"><g><path d="M24,85c0,0.6-0.4,1-1,1H11c-0.6,0-1-0.4-1-1c0-0.6,0.4-1,1-1h12C23.6,84,24,84.4,24,85z" fill="#90A4AE"/><path d="M24,82c0,0.6-0.4,1-1,1H11c-0.6,0-1-0.4-1-1c0-0.6,0.4-1,1-1h12C23.6,81,24,81.4,24,82z" fill="#90A4AE"/></g><g><path d="M24,46c0,0.6-0.4,1-1,1H11c-0.6,0-1-0.4-1-1s0.4-1,1-1h12C23.6,45,24,45.4,24,46z" fill="#90A4AE"/><path d="M24,43c0,0.6-0.4,1-1,1H11c-0.6,0-1-0.4-1-1s0.4-1,1-1h12C23.6,42,24,42.4,24,43z" fill="#90A4AE"/></g><g><path d="M24,65c0,0.6-0.4,1-1,1H11c-0.6,0-1-0.4-1-1c0-0.6,0.4-1,1-1h12C23.6,64,24,64.4,24,65z" fill="#90A4AE"/><path d="M24,62c0,0.6-0.4,1-1,1H11c-0.6,0-1-0.4-1-1s0.4-1,1-1h12C23.6,61,24,61.4,24,62z" fill="#90A4AE"/></g><g><path d="M24,26c0,0.6-0.4,1-1,1H11c-0.6,0-1-0.4-1-1s0.4-1,1-1h12C23.6,25,24,25.4,24,26z" fill="#90A4AE"/><path d="M24,23c0,0.6-0.4,1-1,1H11c-0.6,0-1-0.4-1-1s0.4-1,1-1h12C23.6,22,24,22.4,24,23z" fill="#90A4AE"/></g><g><path d="M24,105c0,0.6-0.4,1-1,1H11c-0.6,0-1-0.4-1-1c0-0.6,0.4-1,1-1h12C23.6,104,24,104.4,24,105z" fill="#90A4AE"/><path d="M24,102c0,0.6-0.4,1-1,1H11c-0.6,0-1-0.4-1-1c0-0.6,0.4-1,1-1h12C23.6,101,24,101.4,24,102z" fill="#90A4AE"/></g></g><g id="blue"><polygon fill="#2962FF" id="rod" points="68,119.5 68.9,111.7 73.3,113.6  "/><g id="body_2_"><polygon fill="#FFCCBC" points="71.6,86.9 68.9,111.7 70.3,114.4 73.3,113.6 89.9,95 88.8,90.7 75.6,84.8   "/><ellipse cx="110.2" cy="25" fill="#2196F3" rx="4" ry="10" transform="matrix(0.408 -0.913 0.913 0.408 42.4242 115.4409)"/><path d="M89.9,95c0,0-0.8-2.5-3.2-3c-1.3-0.3-5.1,1.5-7.3,0.5c-2.6-1.2-1.6-4.7-2.8-5.8c-1.7-1.5-4.9,0.1-4.9,0.1    l29.5-66l18.3,8.2L89.9,95z" fill="#2962FF"/></g><rect fill="#FFD600" height="20" id="decor" transform="matrix(0.408 -0.913 0.913 0.408 29.0466 117.53)" width="3" x="103.7" y="26.4"/></g><g id="red"><polygon fill="#D50000" id="rod_1_" points="49.7,111.3 50.6,103.5 55,105.5  "/><g id="body_1_"><polygon fill="#FFECB3" points="53.4,78.7 50.6,103.5 52,106.2 55,105.5 71.6,86.9 70.5,82.6 57.3,76.7   "/><ellipse cx="92" cy="16.8" fill="#F44336" rx="4" ry="10" transform="matrix(0.408 -0.913 0.913 0.408 39.0647 93.9395)"/><path d="M71.6,86.9c0,0-0.8-2.5-3.2-3c-1.3-0.3-5.1,1.5-7.3,0.5c-2.6-1.2-1.6-4.7-2.8-5.8    c-1.7-1.5-4.9,0.1-4.9,0.1l29.5-66l18.3,8.2L71.6,86.9z" fill="#D50000"/></g><rect fill="#FFD600" height="20" id="decor_1_" transform="matrix(0.408 -0.913 0.913 0.408 25.6884 96.03)" width="3" x="85.4" y="18.2"/></g><g id="green"><polygon fill="#4CAF50" id="rod_2_" points="57,119.5 57.9,111.7 62.3,113.6  "/><g id="body"><polygon fill="#FFE0B2" points="60.6,86.9 57.9,111.7 59.3,114.4 62.3,113.6 78.9,95 77.8,90.7 64.6,84.8   "/><ellipse cx="99.2" cy="25" fill="#66BB6A" rx="4" ry="10" transform="matrix(0.408 -0.913 0.913 0.408 35.9123 105.3979)"/><path d="M78.9,95c0,0-0.8-2.5-3.2-3c-1.3-0.3-5.1,1.5-7.3,0.5c-2.6-1.2-1.6-4.7-2.8-5.8c-1.7-1.5-4.9,0.1-4.9,0.1    l29.5-66l18.3,8.2L78.9,95z" fill="#4CAF50"/></g><rect fill="#FFD600" height="20" id="decor_2_" transform="matrix(0.408 -0.913 0.913 0.408 22.5358 107.4882)" width="3" x="92.7" y="26.4"/></g></svg>