<?xml version="1.0" ?><!DOCTYPE svg  PUBLIC '-//W3C//DTD SVG 1.1//EN'  'http://www.w3.org/Graphics/SVG/1.1/DTD/svg11.dtd'><svg height="512px" style="enable-background:new 0 0 512 512;" version="1.1" viewBox="0 0 512 512" width="512px" xml:space="preserve" xmlns="http://www.w3.org/2000/svg" xmlns:xlink="http://www.w3.org/1999/xlink"><g id="_x31_91_x2C__Data_x2C__framework_x2C__App_x2C__cluster_x2C__complex"><g><path d="M370.781,97.678v0.096v0.098v0.161v0.097v0.16v0.097v0.161l0.018,0.097    l0.018,0.161V98.9v0.162v0.096l0.015,0.161l0.018,0.065v0.16l0.031,0.096v0.162l0.018,0.096l0.015,0.161v0.097l0.031,0.162v0.063    l0.031,0.192v0.065l0.035,0.161l0.014,0.096l0.018,0.162l0.015,0.063l0.035,0.193l0.014,0.065l0.032,0.16l0.018,0.064l0.031,0.193    l0.018,0.064l0.031,0.16l0.014,0.064l0.05,0.193v0.064l0.049,0.161l0.018,0.063l0.032,0.193l0.031,0.064l0.049,0.161l0.014,0.065    l0.05,0.16l0.017,0.064l0.047,0.193l0.018,0.064l0.063,0.16l0.018,0.064l0.049,0.161l0.031,0.065l0.05,0.192l0.015,0.032    l0.066,0.193l0.014,0.031l0.063,0.194l0.017,0.031l0.064,0.193l0.035,0.032l0.063,0.193l0.014,0.032l0.066,0.192l0.015,0.033    l0.099,0.226l0.08,0.192l0.014,0.032l0.082,0.194l0.018,0.031l0.094,0.193l0.018,0.031l0.081,0.162l0.018,0.031l0.081,0.193    l0.031,0.032l0.095,0.193v0.032l0.099,0.16l0.014,0.033l0.112,0.193v0.031l0.099,0.193h0.031l0.098,0.193l0.015,0.032l0.112,0.193    l0,0l0.112,0.192l0.018,0.033l0.112,0.16l0.018,0.033l0.112,0.16l0.014,0.032l0.116,0.192l0.014,0.033l0.13,0.16v0.033    l0.126,0.161v0.031l0.131,0.161l0.018,0.032l0.126,0.161l0.018,0.033l0.13,0.16v0.032l0.126,0.161l0.035,0.031l0.126,0.161l0,0    l0.148,0.194h0.014l0.13,0.193h0.014l0.147,0.16v0.032l0.162,0.161l0,0l0.157,0.192l0,0l0.161,0.161l0,0l0.162,0.193l0.161,0.162    l0.161,0.16l0.031,0.032l0.064,0.063l0.066,0.098l0,0l0.08,0.064l0.081,0.064c3.573,3.508,8.497,5.697,13.937,5.697h0.098    c5.457-0.031,10.399-2.253,13.972-5.826c3.604-3.605,5.843-8.596,5.843-14.102c0-5.504-2.238-10.494-5.843-14.1    c-3.59-3.574-8.581-5.826-14.069-5.826c-5.503,0-10.494,2.252-14.098,5.826C373.038,87.279,370.816,92.205,370.781,97.678     M103.99,117.701h0.112h0.095h0.161h0.098h0.162h0.095l0.162-0.031h0.098h0.144h0.112h0.144l0.099-0.033h0.161h0.081l0.158-0.032    h0.098h0.162l0.095-0.031h0.162l0.081-0.032h0.161l0.081-0.033h0.161l0.095-0.032h0.162l0.081-0.032l0.179-0.031h0.063    l0.162-0.033h0.095l0.162-0.031l0.063-0.033l0.179-0.031h0.081l0.162-0.032l0.063-0.032l0.179-0.033l0.078-0.031l0.161-0.032    h0.067l0.175-0.063h0.063l0.179-0.065h0.063l0.162-0.063h0.063l0.179-0.065h0.049l0.193-0.064l0.045-0.032l0.179-0.031    l0.063-0.033l0.162-0.063h0.063l0.179-0.065l0.049-0.032l0.175-0.063h0.049l0.193-0.064l0.031-0.033l0.193-0.063l0.031-0.032    l0.193-0.064l0.035-0.032l0.193-0.065h0.032l0.175-0.096h0.049l0.175-0.097h0.049l0.161-0.097l0.049-0.031l0.175-0.065    l0.032-0.032l0.193-0.097h0.035l0.176-0.097l0.049-0.031l0.162-0.064l0.031-0.032l0.193-0.097h0.031l0.179-0.129h0.014    l0.193-0.096l0.032-0.033l0.161-0.096h0.032l0.193-0.129h0.018l0.176-0.13h0.035l0.158-0.128h0.035l0.175-0.129h0.018l0.193-0.129    l0,0l0.193-0.129h0.014l0.179-0.129l0.014-0.031l0.179-0.129h0.014l0.179-0.129l0.014-0.032l0.179-0.129h0.018l0.175-0.129v-0.032    l0.193-0.129l0,0l0.175-0.161h0.018l0.162-0.129l0,0l0.193-0.161l0,0l0.175-0.16l0,0l0.179-0.161l0,0l0.175-0.161l0.179-0.161    l0.161-0.16l0.176-0.161l0,0c3.59-3.605,5.826-8.596,5.826-14.102v-0.096c-0.014-5.473-2.253-10.398-5.826-14.004    c-3.604-3.574-8.595-5.826-14.083-5.826c-5.507,0-10.494,2.252-14.084,5.826c-3.607,3.605-5.843,8.596-5.843,14.1    c0,5.506,2.236,10.496,5.843,14.102C93.591,115.448,98.532,117.67,103.99,117.701z M124.011,384.48v-0.097v-0.098v-0.16v-0.097    v-0.162v-0.096l-0.014-0.16v-0.098v-0.161l-0.018-0.097l-0.014-0.16v-0.097v-0.161v-0.097l-0.035-0.161v-0.064l-0.014-0.16    l-0.018-0.097l-0.014-0.161l-0.018-0.097v-0.161l-0.031-0.096v-0.162l-0.032-0.064l-0.018-0.16l-0.014-0.098l-0.035-0.16v-0.097    l-0.031-0.161l-0.014-0.064l-0.035-0.16l-0.014-0.097l-0.031-0.161l-0.018-0.064l-0.032-0.161l-0.018-0.097l-0.032-0.16    l-0.031-0.065l-0.032-0.16l-0.018-0.097l-0.049-0.162l-0.014-0.063l-0.049-0.161l-0.014-0.064l-0.049-0.193l-0.018-0.032    l-0.049-0.192l-0.014-0.064l-0.049-0.162l-0.032-0.063l-0.049-0.161l-0.014-0.064l-0.067-0.193l-0.014-0.032l-0.049-0.192    l-0.032-0.033l-0.067-0.193l-0.014-0.063l-0.067-0.161l-0.014-0.064l-0.063-0.16l-0.035-0.064l-0.063-0.161l-0.032-0.065    l-0.098-0.192l-0.063-0.193l-0.017-0.032l-0.081-0.193l-0.031-0.032l-0.063-0.192l-0.032-0.032l-0.081-0.194l-0.018-0.031    l-0.095-0.161l-0.018-0.032l-0.081-0.193l-0.032-0.031l-0.081-0.193l-0.018-0.033l-0.095-0.16l-0.032-0.032l-0.098-0.192v-0.033    l-0.095-0.161l-0.032-0.032l-0.098-0.192l-0.032-0.032l-0.098-0.162l-0.014-0.031l-0.112-0.162l-0.018-0.031l-0.112-0.193l0,0    l-0.13-0.193l-0.014-0.031l-0.112-0.162l-0.018-0.031l-0.112-0.162l-0.032-0.031l-0.112-0.161l-0.018-0.032l-0.13-0.16v-0.033    l-0.126-0.16l-0.035-0.033l-0.126-0.161v-0.031l-0.144-0.161l-0.018-0.032l-0.13-0.161l0,0l-0.161-0.193l0,0l-0.144-0.193l0,0    l-0.144-0.161h-0.018l-0.144-0.192h-0.018l-0.144-0.161l0,0l-0.162-0.192l-0.161-0.162l-0.176-0.193l-0.161-0.16    c-3.604-3.605-8.595-5.827-14.083-5.827h-0.112c-5.458,0.032-10.399,2.254-13.972,5.827c-3.607,3.605-5.843,8.595-5.843,14.101    c0,5.505,2.236,10.462,5.843,14.067c3.59,3.605,8.577,5.859,14.084,5.859c5.489,0,10.479-2.254,14.083-5.859    C121.758,394.878,123.997,389.921,124.011,384.48z M390.807,364.456h-0.098h-0.113h-0.143h-0.113h-0.144h-0.099h-0.161    l-0.095,0.032h-0.161h-0.099h-0.158h-0.098l-0.162,0.032h-0.08h-0.176l-0.08,0.032h-0.162h-0.08l-0.176,0.032h-0.081l-0.161,0.032    h-0.099l-0.161,0.033h-0.063l-0.175,0.031l-0.081,0.032h-0.161l-0.081,0.032l-0.179,0.031h-0.063l-0.176,0.033h-0.081    l-0.161,0.064h-0.063l-0.178,0.031l-0.082,0.033l-0.16,0.031h-0.064l-0.178,0.064h-0.064l-0.175,0.033l-0.066,0.031l-0.161,0.033    l-0.063,0.031l-0.176,0.032l-0.066,0.032l-0.176,0.064h-0.063l-0.161,0.064h-0.066l-0.176,0.064l-0.049,0.032l-0.193,0.032    l-0.049,0.032l-0.176,0.064l-0.049,0.032l-0.176,0.064h-0.049l-0.179,0.064l-0.046,0.032l-0.179,0.063l-0.063,0.033l-0.161,0.064    h-0.063l-0.211,0.096l-0.175,0.097h-0.05l-0.179,0.097h-0.031l-0.193,0.096h-0.031l-0.176,0.098l-0.049,0.031l-0.162,0.065    l-0.049,0.032l-0.176,0.096h-0.031l-0.18,0.097l-0.031,0.032l-0.179,0.097h-0.031l-0.193,0.097L380.956,367l-0.176,0.096    l-0.018,0.033l-0.192,0.096h-0.032l-0.161,0.129h-0.031l-0.18,0.129h-0.014l-0.193,0.096l-0.018,0.033l-0.176,0.129h-0.031    l-0.161,0.129h-0.035l-0.176,0.128h-0.018l-0.175,0.129l-0.018,0.032l-0.176,0.129h-0.018l-0.176,0.129h-0.018l-0.176,0.129    l-0.018,0.031l-0.175,0.13h-0.018l-0.161,0.16h-0.015l-0.179,0.129v0.032l-0.193,0.129l0,0l-0.161,0.161h-0.015l-0.178,0.161l0,0    l-0.158,0.16h-0.018l-0.176,0.161l-0.162,0.161l-0.178,0.161l-0.176,0.161c-3.607,3.605-5.83,8.595-5.83,14.101v0.097    c0.035,5.44,2.257,10.397,5.83,13.971c3.604,3.605,8.595,5.859,14.098,5.859c5.488,0,10.479-2.254,14.069-5.859    c3.604-3.605,5.843-8.563,5.843-14.067c0-5.506-2.238-10.495-5.843-14.101C401.206,366.71,396.264,364.488,390.807,364.456z     M103.99,260.99h0.112h0.095h0.161h0.098h0.162h0.095h0.162h0.098h0.144l0.112-0.033h0.144h0.099h0.161l0.081-0.031h0.158h0.098    l0.162-0.033h0.095l0.162-0.031h0.081l0.161-0.032h0.081l0.161-0.032h0.095l0.162-0.033h0.081l0.179-0.031h0.063l0.162-0.032    l0.095-0.032l0.162-0.031h0.063l0.179-0.033l0.081-0.032l0.162-0.032h0.063l0.179-0.032l0.078-0.032l0.161-0.032l0.067-0.032    l0.175-0.032l0.063-0.032l0.179-0.031l0.063-0.033l0.162-0.032l0.063-0.031l0.179-0.032l0.049-0.033l0.193-0.031l0.045-0.033    l0.179-0.064h0.063l0.162-0.064l0.063-0.031l0.179-0.064h0.049l0.175-0.064l0.049-0.032l0.193-0.063h0.031l0.193-0.098h0.031    l0.193-0.064l0.035-0.032l0.193-0.064l0.032-0.032l0.175-0.064l0.049-0.032l0.175-0.063l0.049-0.033l0.161-0.063l0.049-0.032    l0.175-0.098h0.032l0.193-0.096l0.035-0.033l0.176-0.063l0.049-0.032l0.162-0.097h0.031l0.193-0.097l0.031-0.032l0.179-0.097    l0.014-0.031l0.193-0.098h0.032l0.161-0.097l0.032-0.031l0.193-0.097l0.018-0.032l0.176-0.097l0.035-0.033l0.158-0.096    l0.035-0.033l0.175-0.096l0.018-0.031l0.193-0.098v-0.031l0.193-0.129h0.014l0.179-0.13h0.014l0.179-0.128l0.014-0.032    l0.179-0.129h0.014l0.179-0.13h0.018l0.175-0.16l0,0l0.193-0.129l0,0l0.175-0.16h0.018l0.162-0.162l0,0l0.193-0.16l0,0    l0.175-0.129v-0.032l0.179-0.128v-0.033l0.175-0.129l0.179-0.193l0.161-0.16l0.176-0.161c3.573-3.573,5.812-8.53,5.826-13.972    v-0.096v-0.129c-0.014-5.441-2.253-10.398-5.826-13.973c-3.604-3.605-8.595-5.826-14.083-5.826h-0.112    c-5.458,0.031-10.399,2.254-13.972,5.826c-3.607,3.605-5.843,8.596-5.843,14.102c0,5.472,2.236,10.462,5.843,14.067    C93.591,258.736,98.532,260.99,103.99,260.99z M246.907,117.701l0.548-0.031l0.516,0.031c5.278-0.16,10.044-2.35,13.518-5.826    c3.608-3.605,5.83-8.596,5.83-14.102v-0.096c-0.035-5.473-2.254-10.398-5.83-14.004c-3.604-3.574-8.594-5.826-14.083-5.826    c-5.503,0-10.479,2.252-14.083,5.826c-3.59,3.605-5.812,8.531-5.843,14.004v0.096v0.098v0.161v0.097v0.16l0.018,0.097v0.161v0.097    l0.014,0.161V98.9l0.018,0.162v0.096v0.161l0.014,0.065l0.018,0.16v0.096l0.032,0.162v0.096l0.018,0.161l0.014,0.097l0.018,0.162    l0.018,0.063l0.014,0.192l0.018,0.065l0.014,0.161l0.018,0.096l0.031,0.162v0.063l0.032,0.193l0.032,0.065l0.018,0.16l0.017,0.064    l0.032,0.193l0.014,0.064l0.049,0.16v0.064l0.031,0.193l0.035,0.064l0.032,0.161l0.014,0.063l0.049,0.193l0.018,0.064l0.046,0.161    l0.017,0.065l0.049,0.16l0.014,0.064l0.049,0.193l0.032,0.064l0.049,0.16l0.018,0.064l0.063,0.161v0.065l0.063,0.192l0.018,0.032    l0.063,0.193l0.018,0.031l0.063,0.194l0.032,0.031l0.066,0.193v0.032l0.081,0.193l0.014,0.032l0.067,0.192l0.032,0.033    l0.095,0.226l0.066,0.192l0.032,0.032l0.063,0.194l0.032,0.031l0.081,0.193l0.018,0.031l0.081,0.162l0.014,0.031l0.099,0.193    l0.014,0.032l0.081,0.193l0.031,0.032l0.099,0.16v0.033l0.098,0.193l0.031,0.031l0.095,0.193h0.017l0.095,0.193l0.017,0.032    l0.095,0.193h0.035l0.095,0.192l0.018,0.033l0.112,0.16l0.014,0.033l0.116,0.16l0.014,0.032l0.112,0.192l0.018,0.033l0.112,0.16    l0.032,0.033l0.112,0.161l0.018,0.031l0.126,0.161v0.032l0.13,0.161l0.018,0.033l0.126,0.16l0.018,0.032l0.13,0.161l0.014,0.031    l0.13,0.161h0.018l0.126,0.194h0.018l0.144,0.193l0,0l0.144,0.16l0.018,0.032l0.144,0.161l0,0l0.162,0.192l0,0l0.144,0.161h0.017    l0.162,0.193l0.162,0.162l0.161,0.16l0.176,0.193C236.799,115.352,241.594,117.573,246.907,117.701z M370.781,240.322    c0.067,0.258,0.081,0.516,0.081,0.773c0,0.256-0.014,0.482-0.081,0.74c0.193,5.182,2.383,9.883,5.83,13.327    c3.604,3.604,8.595,5.827,14.098,5.827h0.098c5.457,0,10.399-2.254,13.972-5.827c3.604-3.605,5.843-8.596,5.843-14.067    c0-5.506-2.238-10.496-5.843-14.102c-3.572-3.572-8.515-5.795-13.972-5.826h-0.098h-0.113h-0.143h-0.113h-0.144h-0.099h-0.161    h-0.095l-0.161,0.031h-0.099h-0.158h-0.098h-0.162l-0.08,0.033h-0.176h-0.08l-0.162,0.032h-0.08l-0.176,0.032h-0.081l-0.161,0.031    h-0.099l-0.161,0.033h-0.063l-0.175,0.031h-0.081l-0.161,0.033h-0.081l-0.179,0.031l-0.063,0.032l-0.176,0.032h-0.081    l-0.161,0.033l-0.063,0.032l-0.178,0.031h-0.082l-0.16,0.065h-0.064l-0.178,0.031l-0.064,0.032l-0.175,0.032l-0.066,0.032    l-0.161,0.032l-0.063,0.033l-0.176,0.031l-0.066,0.032l-0.176,0.032l-0.063,0.033l-0.161,0.063h-0.066l-0.176,0.063h-0.049    l-0.193,0.065l-0.049,0.032l-0.176,0.064h-0.049l-0.176,0.064l-0.049,0.031l-0.179,0.064h-0.046l-0.179,0.097h-0.063l-0.161,0.065    l-0.063,0.031l-0.211,0.096l-0.175,0.065l-0.05,0.032l-0.179,0.064l-0.031,0.033l-0.193,0.096h-0.031l-0.176,0.097h-0.049    l-0.162,0.097l-0.049,0.031l-0.176,0.064l-0.031,0.033l-0.18,0.096h-0.031l-0.179,0.098l-0.031,0.031l-0.193,0.096l-0.031,0.033    l-0.176,0.096h-0.018l-0.192,0.098l-0.032,0.032l-0.161,0.097l-0.031,0.032l-0.18,0.097l-0.014,0.032l-0.193,0.097l-0.018,0.031    l-0.176,0.097l-0.031,0.032l-0.161,0.097l-0.035,0.032l-0.176,0.129h-0.018l-0.175,0.129h-0.018l-0.176,0.129l-0.018,0.032    l-0.176,0.129h-0.018l-0.176,0.128l-0.018,0.033l-0.175,0.129h-0.018l-0.161,0.129l-0.015,0.031l-0.179,0.129l0,0l-0.193,0.161    l0,0l-0.161,0.161h-0.015l-0.178,0.16l0,0l-0.158,0.162h-0.018l-0.176,0.16l-0.162,0.161l-0.178,0.161l-0.176,0.16    C373.164,230.439,370.975,235.14,370.781,240.322z M246.907,260.99l0.548-0.033l0.498,0.033c4.91-0.129,9.384-2.061,12.795-5.119    c0.193-0.387,0.436-0.74,0.74-1.03c0.292-0.29,0.614-0.548,0.969-0.708c3.008-3.477,4.844-8.016,4.861-12.941v-0.096v-0.129    c-0.035-5.441-2.254-10.398-5.83-13.973c-3.491-3.477-8.271-5.697-13.584-5.826l-0.449,0.031l-0.484-0.031    c-5.342,0.097-10.157,2.317-13.648,5.826l0,0c-3.443,3.445-5.633,8.146-5.826,13.36c0.031,0.226,0.063,0.483,0.063,0.741    c0,0.225-0.032,0.482-0.063,0.707c0.161,4.701,1.961,8.982,4.843,12.33c0.34,0.16,0.691,0.418,0.983,0.708    c0.305,0.322,0.547,0.644,0.74,1.03C237.473,258.962,241.983,260.861,246.907,260.99z M247.97,364.456l-0.516,0.032l-0.548-0.032    c-5.313,0.129-10.107,2.351-13.585,5.827c-3.604,3.605-5.843,8.595-5.843,14.101v0.097c0.031,5.44,2.253,10.397,5.843,13.971    c3.604,3.605,8.581,5.859,14.083,5.859c5.489,0,10.479-2.254,14.083-5.859c3.576-3.573,5.795-8.53,5.83-13.971v-0.097v-0.098    v-0.16v-0.097v-0.162v-0.096v-0.16l-0.018-0.098l-0.018-0.161v-0.097v-0.16v-0.097l-0.015-0.161l-0.018-0.097v-0.161l-0.014-0.064    l-0.018-0.16v-0.097l-0.031-0.161v-0.097l-0.032-0.161v-0.096l-0.031-0.162v-0.064l-0.035-0.16v-0.098l-0.031-0.16l-0.015-0.097    l-0.031-0.161l-0.018-0.064l-0.031-0.16v-0.097l-0.05-0.161l-0.018-0.064l-0.031-0.161l-0.014-0.097l-0.035-0.16l-0.015-0.065    l-0.049-0.16l-0.014-0.097l-0.035-0.162l-0.032-0.063l-0.031-0.161l-0.031-0.064l-0.032-0.193l-0.031-0.032l-0.049-0.192    l-0.018-0.064l-0.063-0.162v-0.063l-0.066-0.161l-0.015-0.064l-0.049-0.193l-0.031-0.032l-0.063-0.192l-0.018-0.033l-0.063-0.193    l-0.018-0.063l-0.063-0.161l-0.018-0.064l-0.081-0.16v-0.064l-0.081-0.161l-0.014-0.065l-0.081-0.16l-0.018-0.032l-0.08-0.193    l-0.015-0.032l-0.08-0.193l-0.018-0.032l-0.095-0.192v-0.032l-0.099-0.194l-0.014-0.031l-0.081-0.161l-0.035-0.032l-0.081-0.193    l-0.014-0.031l-0.099-0.193l-0.014-0.033l-0.099-0.16l-0.014-0.032l-0.099-0.192l-0.031-0.033l-0.099-0.161l-0.014-0.032    l-0.099-0.192l-0.014-0.032l-0.112-0.162l-0.018-0.031l-0.112-0.162l-0.018-0.031l-0.095-0.193h-0.031l-0.112-0.193l-0.018-0.031    l-0.112-0.162l-0.018-0.031l-0.127-0.162v-0.031l-0.129-0.161l-0.018-0.032l-0.112-0.16l-0.032-0.033l-0.13-0.16v-0.033    l-0.126-0.161l-0.031-0.031l-0.13-0.161v-0.032l-0.145-0.161h-0.018l-0.13-0.193h-0.014l-0.147-0.193l0,0l-0.158-0.161l0,0    l-0.161-0.192l0,0l-0.147-0.161h-0.014l-0.162-0.192l-0.161-0.162l-0.161-0.193l-0.162-0.16    C258.015,366.807,253.249,364.617,247.97,364.456z M335.052,155.141l-0.583-0.547l0,0l-0.063-0.064h-0.032l-0.063-0.064    l-0.049-0.031l-0.031-0.033c-2.594-2.254-5.973-3.605-9.676-3.605c-4.089,0-7.791,1.674-10.462,4.346    c-2.688,2.672-4.345,6.406-4.345,10.495c0,3.638,1.319,7.019,3.506,9.593l0.035,0.065l0.288,0.29l0.306,0.321l0.21,0.192    c2.671,2.674,6.373,4.346,10.462,4.346c4.088,0,7.791-1.641,10.479-4.313c2.688-2.704,4.345-6.406,4.345-10.495    S337.723,157.813,335.052,155.141z M342.453,151.632c3.029,3.863,4.829,8.725,4.829,14.004c0,6.246-2.541,11.943-6.647,16.032    c-4.137,4.152-9.819,6.696-16.08,6.696c-5.278,0-10.139-1.804-14.003-4.829l-40.868,40.852c2.737,3.67,4.604,8.016,5.264,12.749    h88.205c0.87-6.117,3.702-11.589,7.857-15.743l0.207-0.193l0.049-0.031l0.145-0.161l0.08-0.063l0.131-0.129l0.111-0.13    l0.081-0.063l0.161-0.129l0.031-0.033l0.211-0.193h0.014l0.193-0.192l0.066-0.032l0.145-0.129l0.112-0.097l0.099-0.097    l0.158-0.128l0.066-0.032l0.192-0.162l0.015-0.031l0.21-0.162l0.032-0.031l0.192-0.129l0.067-0.064l0.144-0.129l0.112-0.064    l0.112-0.096l0.161-0.13l0.049-0.031l0.063-0.032l0.368-0.258l0.035-0.032l0.032-0.032l0.192-0.129l0.081-0.031l0.161-0.098    l0.127-0.096l0.098-0.064l0.176-0.129l0.049-0.032l0.225-0.129h0.018l0.225-0.161l0.049-0.032l0.193-0.097l0.096-0.064    l0.129-0.097l0.162-0.097l0.094-0.031l0.211-0.129h0.018l0.256-0.129l0.018-0.033l0.225-0.096l0.081-0.064l0.161-0.064    l0.127-0.097l0.13-0.032l0.179-0.096l0.063-0.033l0.242-0.129h0.014l0.242-0.129h0.032l0.225-0.128l0.098-0.032l0.162-0.064    l0.144-0.064l0.112-0.033l0.193-0.096l0.066-0.031l0.256-0.098l0,0l0.256-0.096l0.05-0.033l0.21-0.096l0.113-0.033l0.144-0.063    l0.179-0.065l0.095-0.031l0.225-0.064l0.05-0.032l0.256-0.097h0.018l0.256-0.064l0.066-0.033l0.193-0.063l0.127-0.032l0.146-0.064    l0.193-0.032l0.08-0.032l0.242-0.064h0.032l0.273-0.097h0.015l0.26-0.063l0.08-0.033l0.193-0.032l0.144-0.031l0.13-0.032    l0.207-0.064l0.081-0.032l0.26-0.032h0.014l0.274-0.064l0.049-0.033l0.242-0.031l0.095-0.032l0.179-0.032l0.176-0.033h0.098    l0.238-0.031l0.05-0.032l0.291-0.032l0,0l0.288-0.031V125.33l-0.288-0.031l0,0l-0.291-0.064h-0.05l-0.238-0.031l-0.098-0.033    l-0.176-0.032l-0.179-0.032h-0.095l-0.242-0.064h-0.049l-0.274-0.064h-0.014l-0.26-0.064h-0.081l-0.207-0.064l-0.13-0.031    l-0.144-0.032l-0.193-0.065h-0.08l-0.26-0.063h-0.015l-0.273-0.097h-0.032l-0.242-0.064l-0.08-0.032l-0.193-0.064l-0.146-0.032    l-0.127-0.032l-0.193-0.065l-0.066-0.031l-0.256-0.096h-0.018l-0.256-0.098h-0.05l-0.225-0.096l-0.095-0.033l-0.179-0.064    l-0.144-0.031l-0.113-0.064l-0.21-0.064l-0.05-0.033l-0.256-0.096l0,0l-0.256-0.097l-0.066-0.032l-0.193-0.097l-0.112-0.032    l-0.144-0.064l-0.162-0.097l-0.098-0.031l-0.225-0.098l-0.032-0.032l-0.242-0.096l-0.014-0.033l-0.242-0.096l-0.063-0.033    l-0.179-0.096l-0.13-0.064l-0.127-0.064l-0.161-0.097l-0.081-0.032l-0.225-0.129h-0.018l-0.256-0.129l-0.018-0.032l-0.211-0.128    l-0.094-0.033l-0.162-0.096l-0.129-0.064l-0.096-0.064l-0.193-0.129l-0.049-0.031l-0.225-0.129h-0.018l-0.225-0.162l-0.049-0.031    l-0.176-0.097l-0.098-0.065l-0.127-0.096l-0.161-0.098l-0.081-0.063l-0.192-0.129l-0.032-0.032h-0.035l-0.368-0.289l-0.063-0.033    l-0.049-0.031l-0.161-0.129l-0.112-0.064l-0.018-0.032L342.453,151.632z M324.555,142.908c4.411,0,8.531,1.256,12.01,3.412    l31.852-31.871l-0.014-0.031l-0.08-0.097l-0.131-0.161l-0.031-0.064l-0.031-0.032l-0.273-0.386l-0.018-0.033l-0.032-0.032    l-0.112-0.192l-0.063-0.064l-0.1-0.162l-0.098-0.127l-0.063-0.098l-0.131-0.192l-0.014-0.032l-0.145-0.258l0,0l-0.16-0.227    l-0.032-0.063l-0.099-0.16l-0.063-0.13l-0.081-0.129l-0.081-0.16l-0.066-0.064l-0.112-0.226l-0.014-0.032l-0.13-0.225    l-0.018-0.033l-0.112-0.225l-0.046-0.064l-0.08-0.162l-0.067-0.127l-0.063-0.129l-0.098-0.193l-0.031-0.065l-0.113-0.225    l-0.014-0.032l-0.112-0.226l-0.018-0.063l-0.099-0.194l-0.045-0.097l-0.081-0.16l-0.066-0.162l-0.032-0.096l-0.094-0.193    l-0.035-0.064l-0.096-0.258l0,0l-0.098-0.257l-0.031-0.065l-0.081-0.193l-0.046-0.127l-0.049-0.162l-0.066-0.16l-0.031-0.097    l-0.082-0.226l-0.014-0.032l-0.098-0.259v-0.031l-0.081-0.258l-0.032-0.064l-0.063-0.192l-0.031-0.129l-0.049-0.129l-0.05-0.193    l-0.032-0.097l-0.063-0.225v-0.033l-0.098-0.289v-0.033l-0.064-0.225l-0.031-0.096l-0.035-0.194l-0.031-0.128l-0.031-0.129    l-0.063-0.226v-0.063l-0.067-0.258v-0.033l-0.063-0.257l-0.018-0.064l-0.045-0.226l-0.018-0.096l-0.032-0.194l-0.032-0.161    l-0.018-0.129l-0.031-0.225l-0.018-0.032l-0.045-0.29l0,0l-0.035-0.289h-88.205l-0.035,0.289l0,0l-0.045,0.29l-0.018,0.032    l-0.032,0.225l-0.018,0.129l-0.031,0.161l-0.031,0.194l-0.018,0.096l-0.046,0.226l-0.018,0.064l-0.063,0.257v0.033l-0.049,0.258    l-0.018,0.063l-0.046,0.226l-0.049,0.129l-0.031,0.128l-0.032,0.194l-0.035,0.096l-0.063,0.225v0.033l-0.081,0.289l-0.018,0.033    l-0.063,0.225l-0.031,0.097l-0.049,0.193l-0.05,0.129l-0.031,0.129l-0.063,0.192l-0.031,0.064l-0.081,0.258v0.031l-0.098,0.259    l-0.015,0.032l-0.066,0.226l-0.046,0.097l-0.066,0.16l-0.046,0.162l-0.049,0.127l-0.081,0.193l-0.018,0.065l-0.112,0.257l0,0    l-0.095,0.258l-0.034,0.064l-0.078,0.193l-0.049,0.096l-0.066,0.162l-0.081,0.16l-0.031,0.097l-0.112,0.194l-0.015,0.063    l-0.115,0.226v0.032l-0.126,0.225l-0.032,0.065l-0.098,0.193l-0.05,0.129l-0.063,0.127l-0.099,0.162l-0.046,0.064l-0.112,0.225    l-0.018,0.033l-0.13,0.225l-0.014,0.032l-0.112,0.226l-0.049,0.064l-0.099,0.16l-0.081,0.129l-0.063,0.13l-0.095,0.16    l-0.035,0.063l-0.158,0.227l0,0l-0.13,0.258l-0.031,0.032l-0.13,0.192l-0.063,0.098l-0.099,0.127l-0.095,0.162l-0.049,0.064    l-0.13,0.192l-0.031,0.032l-0.018,0.033l-0.257,0.386l-0.049,0.032l-0.031,0.064l-0.13,0.161l-0.081,0.097l-0.077,0.129    l-0.116,0.16l-0.063,0.064l-0.145,0.193l-0.018,0.032l-0.175,0.192l-0.018,0.033l-0.162,0.193l-0.045,0.064l-0.116,0.16    l-0.095,0.097l-0.098,0.097l-0.127,0.162l-0.031,0.063l-0.196,0.192l0,0l-0.193,0.227h-0.014l-0.162,0.192l-0.063,0.065    l-0.112,0.128l-0.13,0.129l-0.063,0.065l-0.161,0.16l-0.035,0.032l-0.193,0.192c-4.151,4.153-9.609,7.019-15.691,7.887v88.209    c4.713,0.675,9.043,2.542,12.683,5.246l41.191-41.174c-2.19-3.477-3.446-7.598-3.446-11.976c0-6.278,2.544-11.976,6.665-16.097    C312.594,145.451,318.276,142.908,324.555,142.908z M180.718,155.141c-2.671-2.672-6.374-4.346-10.462-4.346    c-3.667,0-7.016,1.352-9.609,3.542l-0.049,0.031l-0.319,0.29l-0.323,0.29l-0.193,0.192c-2.671,2.672-4.331,6.406-4.331,10.495    s1.66,7.791,4.331,10.462c2.688,2.705,6.391,4.346,10.493,4.346c4.088,0,7.791-1.672,10.462-4.346l0.547-0.578l0.067-0.065l0,0    l0.063-0.063l0.063-0.064l0.018-0.032c2.239-2.576,3.59-5.956,3.59-9.658C185.066,161.547,183.392,157.813,180.718,155.141z     M184.245,183.535c-3.846,3.025-8.725,4.829-13.989,4.829c-6.275,0-11.943-2.544-16.063-6.665    c-4.12-4.12-6.679-9.817-6.679-16.063c0-5.279,1.818-10.173,4.829-14.004l-31.568-31.58l-0.032,0.032l-0.095,0.064l-0.161,0.129    l-0.063,0.031l-0.035,0.033l-0.386,0.289h-0.032l-0.031,0.032l-0.193,0.129l-0.081,0.063l-0.144,0.098l-0.13,0.096l-0.095,0.065    l-0.196,0.097l-0.046,0.031l-0.242,0.162l0,0l-0.225,0.129l-0.066,0.031l-0.176,0.129l-0.112,0.064l-0.13,0.064l-0.161,0.096    l-0.063,0.033l-0.225,0.128l-0.031,0.032l-0.242,0.129h-0.018l-0.225,0.129l-0.063,0.032l-0.193,0.097l-0.116,0.064l-0.126,0.064    l-0.179,0.096l-0.063,0.033l-0.225,0.096l-0.031,0.033l-0.242,0.096l-0.049,0.032l-0.21,0.098l-0.081,0.031l-0.176,0.097    l-0.144,0.064l-0.112,0.032l-0.193,0.097l-0.066,0.032l-0.242,0.097l0,0l-0.274,0.096l-0.045,0.033l-0.211,0.064l-0.112,0.064    l-0.161,0.031l-0.162,0.064l-0.095,0.033l-0.225,0.096h-0.035l-0.273,0.098h-0.014l-0.26,0.096l-0.063,0.031l-0.193,0.065    l-0.13,0.032l-0.144,0.032l-0.176,0.064l-0.098,0.032l-0.242,0.064H111.7l-0.291,0.097h-0.032l-0.225,0.063h-0.098l-0.193,0.065    l-0.144,0.032l-0.13,0.031l-0.207,0.064h-0.067l-0.273,0.064h-0.014l-0.274,0.064h-0.049l-0.225,0.064h-0.112l-0.179,0.032    l-0.161,0.032l-0.126,0.033l-0.228,0.031h-0.046l-0.291,0.064l0,0l-0.274,0.031v88.209l0.274,0.031l0,0l0.291,0.032l0.046,0.032    l0.228,0.031h0.126l0.161,0.033l0.179,0.032l0.112,0.032l0.225,0.031l0.049,0.033l0.274,0.064h0.014l0.273,0.032l0.067,0.032    l0.207,0.064l0.13,0.032l0.144,0.031l0.193,0.032l0.098,0.033l0.225,0.063h0.032l0.291,0.097h0.014l0.242,0.064l0.098,0.032    l0.176,0.032l0.144,0.064l0.13,0.032l0.193,0.063l0.063,0.033l0.26,0.064h0.014l0.273,0.097l0.035,0.032l0.225,0.064l0.095,0.031    l0.162,0.065l0.161,0.063l0.112,0.033l0.211,0.096l0.045,0.033l0.274,0.096l0,0l0.242,0.098l0.066,0.031l0.193,0.096l0.112,0.033    l0.144,0.064l0.176,0.064l0.081,0.032l0.21,0.128h0.049l0.242,0.129h0.031l0.225,0.129l0.063,0.033l0.179,0.096l0.126,0.032    l0.116,0.097l0.193,0.064l0.063,0.064l0.225,0.096l0.018,0.033l0.242,0.129h0.031l0.225,0.129l0.063,0.031l0.161,0.097l0.13,0.097    l0.112,0.064l0.176,0.097l0.066,0.032l0.225,0.161l0,0l0.242,0.129l0.046,0.032l0.196,0.129l0.095,0.064l0.13,0.096l0.144,0.098    l0.081,0.031l0.193,0.129l0.031,0.032l0.032,0.032l0.386,0.258l0.035,0.032l0.063,0.031l0.161,0.13l0.095,0.096l0.13,0.064    l0.144,0.129l0.081,0.064l0.193,0.129l0.018,0.031l0.207,0.162l0.035,0.031l0.193,0.162l0.063,0.032l0.144,0.128l0.112,0.097    l0.098,0.097l0.162,0.129l0.049,0.032l0.193,0.192h0.014l0.193,0.193l0.031,0.033l0.179,0.129l0.081,0.063l0.126,0.13l0.116,0.129    l0.077,0.063l0.162,0.161l0.035,0.031l0.193,0.193c4.152,4.154,7.016,9.626,7.886,15.743h88.176    c0.674-4.733,2.541-9.11,5.278-12.749L184.245,183.535z M170.256,142.908c6.261,0,11.96,2.543,16.066,6.631    c4.103,4.121,6.661,9.818,6.661,16.097c0,4.378-1.271,8.499-3.443,11.976l41.173,41.174c3.671-2.735,8.033-4.604,12.782-5.279    V125.33c-6.135-0.868-11.624-3.701-15.775-7.887l-0.193-0.192l-0.049-0.032l-0.144-0.16l-0.081-0.065l-0.112-0.129l-0.13-0.128    l-0.063-0.065l-0.161-0.192h-0.018l-0.193-0.227h-0.014l-0.162-0.192l-0.049-0.063l-0.13-0.162l-0.081-0.097l-0.095-0.097    l-0.13-0.16l-0.045-0.064l-0.162-0.193l-0.018-0.033l-0.161-0.192l-0.032-0.032l-0.144-0.193l-0.049-0.064l-0.13-0.16    l-0.081-0.129l-0.081-0.097l-0.126-0.161l-0.031-0.064l-0.035-0.032l-0.256-0.386l-0.032-0.033l-0.031-0.032l-0.13-0.192    l-0.049-0.064l-0.095-0.162l-0.098-0.127l-0.049-0.098l-0.126-0.192l-0.031-0.032l-0.147-0.258l0,0l-0.144-0.227l-0.032-0.063    l-0.112-0.16l-0.066-0.13l-0.081-0.129l-0.095-0.16l-0.032-0.064l-0.13-0.226v-0.032l-0.144-0.225l-0.018-0.033l-0.112-0.225    l-0.049-0.064l-0.095-0.162l-0.067-0.127l-0.045-0.129l-0.099-0.193l-0.031-0.065l-0.112-0.225v-0.032l-0.13-0.226l-0.014-0.063    l-0.112-0.194l-0.035-0.097l-0.063-0.16l-0.063-0.162l-0.066-0.096l-0.063-0.193l-0.031-0.064l-0.099-0.258h-0.014l-0.112-0.257    v-0.065l-0.099-0.193l-0.031-0.127l-0.063-0.162l-0.066-0.16l-0.032-0.097l-0.081-0.226l-0.018-0.032l-0.095-0.259v-0.031    l-0.081-0.258l-0.018-0.064l-0.063-0.192l-0.049-0.129l-0.046-0.129l-0.049-0.193l-0.032-0.097l-0.067-0.225l-0.014-0.033    l-0.067-0.289v-0.033l-0.063-0.225l-0.032-0.096l-0.049-0.194l-0.049-0.128l-0.032-0.129l-0.032-0.226l-0.031-0.063l-0.049-0.258    v-0.033l-0.063-0.257l-0.018-0.064l-0.032-0.226l-0.032-0.096l-0.031-0.194l-0.035-0.161l-0.014-0.129l-0.032-0.225l-0.018-0.032    l-0.049-0.29l0,0l-0.046-0.289h-88.176l-0.049,0.289l0,0l-0.049,0.29v0.032l-0.045,0.225l-0.018,0.129l-0.032,0.161l-0.032,0.194    l-0.018,0.096l-0.049,0.226l-0.014,0.064l-0.049,0.257l-0.017,0.033l-0.046,0.258l-0.032,0.063l-0.035,0.226l-0.032,0.129    l-0.032,0.128l-0.063,0.194l-0.018,0.096l-0.063,0.225l-0.017,0.033l-0.063,0.289v0.033l-0.081,0.225l-0.018,0.097l-0.063,0.193    l-0.049,0.129l-0.049,0.129l-0.045,0.192l-0.018,0.064l-0.095,0.258v0.031l-0.098,0.259l-0.018,0.032l-0.081,0.226l-0.031,0.097    l-0.063,0.16l-0.063,0.162l-0.035,0.127l-0.077,0.193l-0.018,0.065l-0.098,0.257h-0.014l-0.112,0.258l-0.018,0.064l-0.081,0.193    l-0.049,0.096l-0.063,0.162l-0.081,0.16l-0.031,0.097l-0.098,0.194l-0.032,0.063l-0.112,0.226l-0.014,0.032l-0.098,0.225    l-0.049,0.065l-0.081,0.193l-0.063,0.129l-0.063,0.127l-0.098,0.162l-0.032,0.064l-0.13,0.225v0.033l-0.144,0.225l-0.018,0.032    l-0.126,0.226l-0.032,0.064l-0.098,0.16l-0.063,0.129l-0.081,0.13l-0.112,0.16l-0.031,0.063l-0.13,0.227l0,0l-0.162,0.258    l-0.032,0.032l-0.112,0.192l-0.066,0.098l-0.081,0.127l-0.095,0.162l-0.063,0.064l-0.13,0.192l-0.032,0.032l-0.018,0.033    l-0.273,0.386l-0.032,0.032l-0.032,0.064l-0.129,0.161l-0.063,0.097l-0.032,0.031l31.87,31.871    C161.724,144.164,165.848,142.908,170.256,142.908z M182.104,305.737c-2.671-2.479-6.247-4.024-10.174-4.024    c-4.088,0-7.791,1.674-10.479,4.347c-2.685,2.671-4.327,6.374-4.327,10.462c0,3.959,1.526,7.533,4.008,10.173l0.014,0.032    l0.162,0.129l0.067,0.098l0.077,0.063c2.688,2.671,6.391,4.346,10.479,4.346c4.089,0,7.792-1.675,10.479-4.346    c2.688-2.673,4.345-6.407,4.345-10.495c0-4.023-1.607-7.693-4.201-10.365l-0.081-0.065l-0.225-0.192L182.104,305.737z     M190.425,303.322c2.657,3.734,4.232,8.274,4.232,13.199c0,6.277-2.541,11.943-6.647,16.064c-4.138,4.12-9.819,6.695-16.081,6.695    c-4.924,0-9.497-1.576-13.213-4.249l-32.466,32.481l0.063,0.098l0.098,0.096l0.063,0.129l0.129,0.161l0.032,0.032l0.032,0.064    l0.273,0.354l0.018,0.033l0.032,0.064l0.13,0.161l0.063,0.097l0.095,0.16l0.081,0.129l0.066,0.097l0.112,0.192l0.032,0.033    l0.162,0.225l0,0l0.13,0.258l0.031,0.032l0.112,0.193l0.081,0.097l0.063,0.129l0.098,0.16l0.032,0.097l0.126,0.194l0.018,0.031    l0.144,0.258v0.032l0.13,0.225l0.032,0.065l0.098,0.16l0.063,0.129l0.063,0.129l0.081,0.16l0.049,0.098l0.098,0.225l0.014,0.033    l0.112,0.225l0.032,0.032l0.098,0.226l0.031,0.096l0.081,0.162l0.063,0.16l0.049,0.097l0.081,0.193l0.018,0.065l0.112,0.256h0.014    l0.098,0.258l0.018,0.064l0.077,0.193l0.035,0.129l0.063,0.129l0.063,0.193l0.031,0.096l0.081,0.193l0.018,0.064l0.098,0.258l0,0    l0.095,0.258l0.018,0.097l0.045,0.192l0.049,0.129l0.049,0.129l0.063,0.193l0.018,0.097l0.081,0.226v0.031l0.063,0.291h0.017    l0.063,0.257l0.018,0.097l0.063,0.193l0.032,0.129l0.032,0.129l0.035,0.225l0.032,0.064l0.046,0.258h0.017l0.049,0.29l0.014,0.063    l0.049,0.226l0.018,0.097l0.032,0.193l0.032,0.161l0.018,0.097l0.045,0.226v0.063l0.049,0.29l0,0l0.049,0.29h88.176l0.046-0.29    l0,0l0.049-0.29l0.018-0.063l0.032-0.226l0.014-0.097l0.035-0.161l0.031-0.193l0.032-0.097l0.032-0.226l0.018-0.063l0.063-0.29    l0,0l0.049-0.258l0.031-0.064l0.032-0.225l0.032-0.129l0.049-0.129l0.049-0.193l0.032-0.097l0.063-0.257l0,0l0.067-0.291    l0.014-0.031l0.067-0.226l0.032-0.097l0.049-0.193l0.046-0.129l0.049-0.129l0.063-0.192l0.018-0.097l0.081-0.258l0,0l0.095-0.258    l0.018-0.064l0.081-0.193l0.032-0.096l0.066-0.193l0.063-0.129l0.031-0.129l0.099-0.193v-0.064l0.112-0.258h0.014l0.099-0.256    l0.031-0.065l0.063-0.193l0.066-0.097l0.063-0.16l0.063-0.162l0.035-0.096l0.112-0.226l0.014-0.032l0.13-0.225v-0.033l0.112-0.225    l0.031-0.098l0.099-0.16l0.045-0.129l0.067-0.129l0.095-0.16l0.049-0.065l0.112-0.225l0.018-0.032l0.144-0.258v-0.031l0.13-0.194    l0.032-0.097l0.095-0.16l0.081-0.129l0.066-0.097l0.112-0.193l0.032-0.032l0.144-0.258l0,0l0.147-0.225l0.031-0.033l0.126-0.192    l0.049-0.097l0.098-0.129l0.095-0.16l0.049-0.097l0.13-0.161l0.031-0.064l0.032-0.033l0.256-0.354l0.035-0.064l0.031-0.032    l0.126-0.161l0.081-0.129l0.081-0.096l0.13-0.161l0.049-0.065l0.144-0.192l0.032-0.032l0.161-0.225h0.018l0.162-0.194l0.045-0.063    l0.13-0.161l0.095-0.097l0.081-0.098l0.13-0.16l0.049-0.064l0.162-0.193h0.014l0.193-0.225l0.018-0.032l0.161-0.161l0.063-0.064    l0.13-0.129l0.112-0.129l0.081-0.064l0.144-0.16l0.049-0.064l0.193-0.193c4.151-4.152,9.64-7.019,15.775-7.855v-88.174    c-4.829-0.678-9.272-2.608-12.975-5.441L190.425,303.322z M171.93,293.794c4.766,0,9.178,1.481,12.845,3.991l40.208-40.207    c-2.67-3.606-4.475-7.889-5.148-12.556h-88.176c-0.87,6.116-3.734,11.589-7.886,15.741l-0.193,0.193l-0.035,0.033l-0.162,0.16    l-0.077,0.098l-0.116,0.096l-0.126,0.129l-0.081,0.064l-0.179,0.16h-0.031l-0.193,0.194l-0.014,0.032l-0.193,0.16l-0.049,0.032    l-0.162,0.129l-0.098,0.097l-0.112,0.096l-0.144,0.13l-0.063,0.032l-0.193,0.16l-0.035,0.033l-0.207,0.16l-0.018,0.033    l-0.193,0.129l-0.081,0.063l-0.144,0.129l-0.13,0.063l-0.095,0.098l-0.161,0.129l-0.063,0.032l-0.035,0.032l-0.386,0.257    l-0.032,0.032l-0.031,0.033l-0.193,0.128l-0.081,0.065l-0.144,0.063l-0.13,0.097l-0.095,0.064l-0.196,0.129l-0.046,0.031    l-0.242,0.13l0,0l-0.225,0.16l-0.066,0.032l-0.176,0.097l-0.112,0.064l-0.13,0.097l-0.161,0.096l-0.063,0.033l-0.225,0.129h-0.031    l-0.242,0.129l-0.018,0.031l-0.225,0.129l-0.063,0.033l-0.193,0.096l-0.116,0.064l-0.126,0.064l-0.179,0.064l-0.063,0.032    l-0.225,0.13h-0.031l-0.242,0.127h-0.049l-0.21,0.129l-0.081,0.033l-0.176,0.064l-0.144,0.064l-0.112,0.064l-0.193,0.063    l-0.066,0.032l-0.242,0.097l0,0l-0.274,0.129h-0.045l-0.211,0.097l-0.112,0.032l-0.161,0.064l-0.162,0.063l-0.095,0.033    l-0.225,0.063l-0.035,0.032l-0.273,0.098h-0.014l-0.26,0.064l-0.063,0.031l-0.193,0.064l-0.13,0.032l-0.144,0.065l-0.176,0.031    l-0.098,0.032l-0.242,0.065l-0.014,0.031l-0.291,0.064h-0.032l-0.225,0.064l-0.098,0.032l-0.193,0.032l-0.144,0.064l-0.13,0.031    l-0.207,0.033l-0.067,0.032l-0.273,0.032l-0.014,0.031l-0.274,0.033l-0.049,0.032l-0.225,0.031l-0.112,0.032l-0.179,0.033    l-0.161,0.031h-0.126l-0.228,0.064h-0.046l-0.291,0.032l0,0l-0.274,0.065v88.174l0.274,0.032l0,0l0.291,0.065h0.046l0.228,0.031    l0.126,0.033l0.161,0.031l0.179,0.032h0.112l0.225,0.065h0.049l0.274,0.063h0.014l0.273,0.063h0.067l0.207,0.065l0.13,0.032    l0.144,0.031l0.193,0.033l0.098,0.032l0.225,0.063h0.032l0.291,0.098h0.014l0.242,0.063l0.098,0.032l0.176,0.064l0.144,0.032    l0.13,0.032l0.193,0.064l0.063,0.032l0.26,0.097h0.014l0.273,0.097h0.035l0.225,0.063l0.095,0.065l0.162,0.032l0.161,0.064    l0.112,0.064l0.211,0.064l0.045,0.031l0.274,0.097l0,0l0.242,0.098l0.066,0.031l0.193,0.097l0.112,0.032l0.144,0.064l0.176,0.097    l0.081,0.032l0.21,0.097l0.049,0.032l0.242,0.097h0.031l0.225,0.129l0.063,0.031l0.179,0.098l0.126,0.064l0.116,0.063l0.193,0.097    l0.063,0.032l0.225,0.129h0.018l0.242,0.129l0.031,0.032l0.225,0.096l0.063,0.065l0.161,0.097l0.13,0.064l0.112,0.064l0.176,0.096    l0.066,0.032l0.225,0.161l0,0l0.242,0.129l0.046,0.031l0.196,0.13l0.095,0.063l0.13,0.098l0.144,0.097l0.081,0.063l0.193,0.129    l0.031,0.032h0.032l0.386,0.29l0.035,0.031l0.063,0.033l0.112,0.064l32.579-32.579c-2.495-3.638-3.976-8.08-3.976-12.845    c0-6.245,2.544-11.943,6.665-16.031C159.956,296.338,165.655,293.794,171.93,293.794z M329.254,303.935    c-2.702-2.672-6.422-4.346-10.512-4.346c-3.523,0-6.741,1.224-9.285,3.251l-0.049,0.064c-0.127,0.129-0.274,0.258-0.436,0.354    l-0.705,0.677c-2.689,2.671-4.349,6.406-4.349,10.494c0,4.089,1.659,7.791,4.331,10.463c2.688,2.704,6.404,4.347,10.492,4.347    c4.09,0,7.81-1.643,10.48-4.314l0.709-0.74l0.018-0.033l0.014-0.031l0.305-0.354l0.018-0.033c2.061-2.575,3.285-5.794,3.285-9.304    C333.57,310.341,331.91,306.605,329.254,303.935z M333.086,332.039c-3.927,3.186-8.918,5.118-14.344,5.118    c-6.26,0-11.942-2.544-16.045-6.663c-4.138-4.121-6.696-9.819-6.696-16.065c0-5.439,1.931-10.431,5.117-14.357l-36.843-36.86    c-3.686,2.801-8.083,4.732-12.876,5.408v88.207c6.082,0.869,11.54,3.734,15.691,7.855l0.193,0.193l0.035,0.064l0.161,0.16    l0.063,0.064l0.13,0.129l0.112,0.129l0.063,0.064l0.162,0.161l0.014,0.032l0.193,0.225l0,0l0.196,0.193l0.031,0.064l0.127,0.16    l0.098,0.098l0.095,0.097l0.116,0.161l0.045,0.063l0.162,0.194h0.018l0.175,0.225l0.018,0.032l0.145,0.192l0.063,0.065    l0.116,0.161l0.077,0.096l0.081,0.129l0.13,0.161l0.031,0.032l0.049,0.064l0.257,0.354l0.018,0.033l0.031,0.064l0.13,0.161    l0.049,0.097l0.095,0.16l0.099,0.129l0.063,0.097l0.13,0.192l0.031,0.033l0.13,0.225l0,0l0.158,0.258l0.035,0.032l0.095,0.193    l0.063,0.097l0.081,0.129l0.099,0.16l0.049,0.097l0.112,0.194l0.014,0.031l0.13,0.258l0.018,0.032l0.112,0.225l0.046,0.065    l0.099,0.16l0.063,0.129l0.05,0.129l0.098,0.16l0.032,0.098l0.126,0.225v0.033l0.115,0.225l0.015,0.032l0.112,0.226l0.031,0.096    l0.081,0.162l0.066,0.16l0.049,0.097l0.078,0.193l0.034,0.065l0.095,0.256l0,0l0.112,0.258l0.018,0.064l0.081,0.193l0.049,0.129    l0.046,0.129l0.066,0.193l0.046,0.096l0.066,0.193l0.015,0.064l0.098,0.258l0,0l0.081,0.258l0.031,0.097l0.063,0.192l0.031,0.129    l0.05,0.129l0.049,0.193l0.031,0.097l0.063,0.226l0.018,0.031l0.081,0.291l0,0l0.063,0.257l0.035,0.097l0.032,0.193l0.031,0.129    l0.049,0.129l0.046,0.225l0.018,0.064l0.049,0.258l0,0l0.063,0.29l0.018,0.063l0.046,0.226l0.018,0.097l0.031,0.193l0.031,0.161    l0.018,0.097l0.032,0.226l0.018,0.063l0.045,0.29l0,0l0.035,0.29h88.205l0.035-0.29l0,0l0.045-0.29l0.018-0.063l0.031-0.226    l0.018-0.097l0.032-0.161l0.032-0.193l0.018-0.097l0.045-0.226l0.018-0.063l0.063-0.29l0,0l0.067-0.258v-0.064l0.063-0.225    l0.031-0.129l0.031-0.129l0.035-0.193l0.031-0.097l0.064-0.257l0,0l0.098-0.291v-0.031l0.063-0.226l0.032-0.097l0.05-0.193    l0.049-0.129l0.031-0.129l0.063-0.192l0.032-0.097l0.081-0.258l0,0l0.098-0.258l0.014-0.064l0.082-0.193l0.031-0.096l0.066-0.193    l0.049-0.129l0.046-0.129l0.081-0.193l0.031-0.064l0.098-0.258l0,0l0.096-0.256l0.035-0.065l0.094-0.193l0.032-0.097l0.066-0.16    l0.081-0.162l0.045-0.096l0.099-0.226l0.018-0.032l0.112-0.225l0.014-0.033l0.113-0.225l0.031-0.098l0.098-0.16l0.063-0.129    l0.067-0.129l0.08-0.16l0.046-0.065l0.112-0.225l0.018-0.032l0.13-0.258l0.014-0.031l0.112-0.194l0.066-0.097l0.081-0.16    l0.081-0.129l0.063-0.097l0.099-0.193l0.032-0.032l0.16-0.258l0,0l0.145-0.225l0.014-0.033l0.131-0.192l0.063-0.097l0.098-0.129    l0.1-0.16l0.063-0.097l0.112-0.161l0.032-0.064l0.018-0.033l0.273-0.354l0.031-0.064l0.031-0.032l0.131-0.161l0.08-0.129    l0.08-0.096l0.081-0.098L333.086,332.039z M181.813,54.572c1.499,0,3.061-0.966,3.559-2.222c1.302-2.64-0.691-5.698-3.559-5.698    h-7.917c-1.481,0-3.06,0.998-3.541,2.221c-1.319,2.641,0.674,5.699,3.541,5.699H181.813z M213.458,54.572    c1.481,0,3.06-0.966,3.541-2.222c1.319-2.64-0.674-5.698-3.541-5.698h-7.917c-1.481,0-3.061,0.998-3.541,2.221    c-1.32,2.641,0.674,5.699,3.541,5.699H213.458z M245.089,54.572c1.495,0,3.057-0.966,3.555-2.222    c1.32-2.64-0.691-5.698-3.555-5.698h-7.903c-1.499,0-3.06,0.998-3.559,2.221c-1.319,2.641,0.691,5.699,3.559,5.699H245.089z     M276.734,54.572c1.494,0,3.057-0.966,3.555-2.222c1.319-2.64-0.691-5.698-3.555-5.698h-7.904c-1.512,0-3.06,0.998-3.572,2.221    c-1.306,2.641,0.705,5.699,3.572,5.699H276.734z M308.361,54.572c1.514,0,3.061-0.966,3.573-2.222    c1.319-2.64-0.706-5.698-3.573-5.698h-7.886c-1.513,0-3.061,0.998-3.572,2.221c-1.323,2.641,0.705,5.699,3.572,5.699H308.361z     M340.007,54.572c1.499,0,3.061-0.966,3.559-2.222c1.319-2.64-0.691-5.698-3.559-5.698h-7.903c-1.495,0-3.057,0.998-3.555,2.221    c-1.323,2.641,0.691,5.699,3.555,5.699H340.007z M371.652,54.572c1.498,0,3.061-0.966,3.559-2.222    c1.319-2.64-0.691-5.698-3.559-5.698h-7.918c-1.48,0-3.043,0.998-3.541,2.221c-1.322,2.641,0.674,5.699,3.541,5.699H371.652z     M403.297,54.572c1.481,0,3.061-0.966,3.541-2.222c1.32-2.64-0.674-5.698-3.541-5.698h-7.917c-1.481,0-3.061,0.998-3.541,2.221    c-1.323,2.641,0.674,5.699,3.541,5.699H403.297z M434.942,54.572c1.481,0,3.043-0.966,3.541-2.222    c1.319-2.64-0.677-5.698-3.541-5.698h-7.917c-1.499,0-3.061,0.998-3.559,2.221c-1.306,2.641,0.691,5.699,3.559,5.699H434.942z     M434.879,78.362c0,1.513,0.966,3.059,2.222,3.573c2.64,1.32,5.682-0.708,5.682-3.573v-7.887c0-1.514-0.982-3.059-2.221-3.573    c-2.64-1.32-5.683,0.707-5.683,3.573V78.362z M434.879,110.008c0,1.514,0.966,3.059,2.222,3.573    c2.64,1.287,5.682-0.708,5.682-3.573v-7.92c0-1.48-0.982-3.059-2.221-3.541c-2.64-1.32-5.683,0.676-5.683,3.541V110.008z     M434.879,141.652c0,1.481,0.966,3.059,2.222,3.541c2.64,1.32,5.682-0.676,5.682-3.541v-7.919c0-1.481-0.982-3.059-2.221-3.541    c-2.64-1.32-5.683,0.675-5.683,3.541V141.652z M434.879,173.298c0,1.481,0.966,3.059,2.222,3.541    c2.64,1.319,5.682-0.676,5.682-3.541v-7.919c0-1.481-0.982-3.059-2.221-3.541c-2.64-1.32-5.683,0.676-5.683,3.541V173.298z     M434.879,204.91c0,1.514,0.966,3.059,2.222,3.574c2.64,1.319,5.682-0.709,5.682-3.574v-7.887c0-1.514-0.982-3.059-2.221-3.573    c-2.64-1.319-5.683,0.708-5.683,3.573V204.91z M434.879,236.556c0,1.513,0.966,3.059,2.222,3.573    c2.64,1.32,5.682-0.708,5.682-3.573v-7.887c0-1.514-0.982-3.059-2.221-3.573c-2.64-1.32-5.683,0.707-5.683,3.573V236.556z     M434.879,268.201c0,1.514,0.966,3.059,2.222,3.573c2.64,1.319,5.682-0.708,5.682-3.573v-7.887c0-1.514-0.982-3.059-2.221-3.574    c-2.64-1.319-5.683,0.709-5.683,3.574V268.201z M142.264,46.652c-1.495,0-3.057,0.998-3.555,2.221    c-1.319,2.641,0.691,5.699,3.555,5.699h7.903c1.499,0,3.061-0.966,3.559-2.222c1.32-2.64-0.691-5.698-3.559-5.698H142.264z     M42.033,446.676c-2.187,0-3.958-1.771-3.958-3.96c0-2.188,1.772-3.96,3.958-3.96h306.65c2.173,0,3.962,1.771,3.962,3.96    c0,2.189-1.789,3.96-3.962,3.96H42.033z M221.604,465.347c-2.19,0-3.959-1.803-3.959-3.959c0-2.189,1.769-3.96,3.959-3.96h212.195    c2.176,0,3.962,1.771,3.962,3.96c0,2.156-1.786,3.959-3.962,3.959H221.604z M455.516,465.347c-2.177,0-3.963-1.803-3.963-3.959    c0-2.189,1.786-3.96,3.963-3.96h26.524c2.189,0,3.959,1.771,3.959,3.96c0,2.156-1.77,3.959-3.959,3.959H455.516z M29.963,464.768    c-2.189,0-3.962-1.771-3.962-3.959c0-2.189,1.772-3.96,3.962-3.96H130.5c2.186,0,3.958,1.771,3.958,3.96    c0,2.188-1.772,3.959-3.958,3.959H29.963z M318.742,291.701c6.266,0,11.961,2.543,16.05,6.633    c4.138,4.152,6.696,9.818,6.696,16.095c0,4.218-1.176,8.21-3.205,11.589l35.913,35.928l0.112-0.064l0.049-0.033l0.063-0.031    l0.368-0.29h0.035l0.032-0.032l0.192-0.129l0.081-0.063l0.161-0.097l0.127-0.098l0.098-0.063l0.176-0.13l0.049-0.031l0.225-0.129    h0.018l0.225-0.161l0.049-0.032l0.193-0.096l0.096-0.064l0.129-0.064l0.162-0.097l0.094-0.065l0.211-0.096l0.018-0.032    l0.256-0.129h0.018l0.225-0.129l0.081-0.032l0.161-0.097l0.127-0.063l0.13-0.064l0.179-0.098l0.063-0.031l0.242-0.129h0.014    l0.242-0.097l0.032-0.032l0.225-0.097l0.098-0.032l0.162-0.097l0.144-0.064l0.112-0.032l0.193-0.097l0.066-0.031l0.256-0.098l0,0    l0.256-0.097l0.05-0.031l0.21-0.064l0.113-0.064l0.144-0.064l0.179-0.032l0.095-0.065l0.225-0.063h0.05l0.256-0.097h0.018    l0.256-0.097l0.066-0.032l0.193-0.064l0.127-0.032l0.146-0.032l0.193-0.064l0.08-0.032l0.242-0.063h0.032l0.273-0.098h0.015    l0.26-0.063l0.08-0.032l0.193-0.033l0.144-0.031l0.13-0.032l0.207-0.065h0.081l0.26-0.063h0.014l0.274-0.063h0.049l0.242-0.065    h0.095l0.179-0.032l0.176-0.031l0.098-0.033l0.238-0.031h0.05l0.291-0.065l0,0l0.288-0.032v-88.174l-0.288-0.065l0,0l-0.291-0.032    h-0.05l-0.238-0.064h-0.098l-0.176-0.031l-0.179-0.033l-0.095-0.032l-0.242-0.031l-0.049-0.032l-0.274-0.033l-0.014-0.031    l-0.26-0.032l-0.081-0.032l-0.207-0.033l-0.13-0.031l-0.144-0.064l-0.193-0.032l-0.08-0.032l-0.26-0.064h-0.015l-0.273-0.064    l-0.032-0.031l-0.242-0.065l-0.08-0.032l-0.193-0.031l-0.146-0.065l-0.127-0.032l-0.193-0.064l-0.066-0.031l-0.256-0.064h-0.018    l-0.256-0.098l-0.05-0.032l-0.225-0.063l-0.095-0.033l-0.179-0.063l-0.144-0.064l-0.113-0.032l-0.21-0.097h-0.05l-0.256-0.129l0,0    l-0.256-0.097l-0.066-0.032l-0.193-0.063l-0.112-0.064l-0.144-0.064l-0.162-0.064l-0.098-0.033l-0.225-0.129h-0.032l-0.242-0.127    h-0.014l-0.242-0.13l-0.063-0.032l-0.179-0.064l-0.13-0.064l-0.127-0.064l-0.161-0.096l-0.081-0.033l-0.225-0.129l-0.018-0.031    l-0.256-0.129h-0.018l-0.211-0.129l-0.094-0.033l-0.162-0.096l-0.129-0.097l-0.096-0.064l-0.193-0.097l-0.049-0.032l-0.225-0.16    h-0.018l-0.225-0.13l-0.049-0.031l-0.176-0.129l-0.098-0.064l-0.127-0.097l-0.161-0.063l-0.081-0.065l-0.192-0.128l-0.032-0.033    l-0.035-0.032l-0.368-0.257l-0.063-0.032l-0.049-0.032l-0.161-0.129l-0.112-0.098l-0.112-0.063l-0.144-0.129l-0.067-0.063    l-0.192-0.129l-0.032-0.033l-0.21-0.16l-0.015-0.033l-0.192-0.16l-0.066-0.032l-0.158-0.13l-0.099-0.096l-0.112-0.097    l-0.145-0.129l-0.066-0.032l-0.193-0.16l-0.014-0.032l-0.211-0.194h-0.031l-0.161-0.16l-0.081-0.064l-0.111-0.129l-0.131-0.096    l-0.08-0.098l-0.145-0.16l-0.049-0.033l-0.207-0.193c-4.155-4.152-6.987-9.625-7.857-15.741h-88.19    c-0.66,4.667-2.478,8.949-5.135,12.556l37.313,37.311C310.552,292.86,314.51,291.701,318.742,291.701z" style="fill-rule:evenodd;clip-rule:evenodd;"/></g></g><g id="Layer_1"/></svg>