<?xml version="1.0" ?><svg id="Calque_1" style="enable-background:new 0 0 512 512;" version="1.1" viewBox="0 0 512 512" xml:space="preserve" xmlns="http://www.w3.org/2000/svg" xmlns:xlink="http://www.w3.org/1999/xlink"><style type="text/css">
	.st0{fill:#6F707E;}
</style><path class="st0" d="M511.7,204.8c-0.7-3.2-2.6-6-5.5-7.8l-76.5-48V81.4h7.1c6.7,0,12.2-5.5,12.2-12.2  S443.6,57,436.9,57h-19.3h-44h-19.3c-6.7,0-12.2,5.5-12.2,12.2s5.5,12.2,12.2,12.2h7.1V106l-98.9-62.1c-4-2.5-9-2.5-13,0L5.7,197  c-2.8,1.7-4.7,4.6-5.4,7.8c-0.7,3.2,0,6.6,1.8,9.3l31.8,47.2c2.3,3.4,6.1,5.4,10.1,5.4h24.9v191c0,6.7,5.5,12.2,12.2,12.2h117.5  h114.9h117.5c6.7,0,12.2-5.5,12.2-12.2v-191H468c4,0,7.9-2,10.1-5.4l31.8-47.2C511.8,211.4,512.4,208.1,511.7,204.8z M405.4,81.4  v52.3l-19.6-12.3V81.4H405.4z M210.7,445.6V313.4c0-25,20.3-45.2,45.2-45.2s45.2,20.3,45.2,45.2v132.1H210.7z M461.5,242.4h-30.6  c-6.7,0-12.2,5.5-12.2,12.2v191h-93.1V313.4c0-38.4-31.2-69.6-69.6-69.6c-38.4,0-69.6,31.2-69.6,69.6v132.1H93.3v-191  c0-6.7-5.5-12.2-12.2-12.2H50.5L29.3,211L256,68.6L482.7,211L461.5,242.4z" id="XMLID_14_"/></svg>