<?xml version="1.0" ?><svg height="468.254" id="svg44" version="1.1" viewBox="0 0 468.24701 468.254" width="468.24701" xml:space="preserve" xmlns="http://www.w3.org/2000/svg" xmlns:cc="http://creativecommons.org/ns#" xmlns:dc="http://purl.org/dc/elements/1.1/" xmlns:inkscape="http://www.inkscape.org/namespaces/inkscape" xmlns:rdf="http://www.w3.org/1999/02/22-rdf-syntax-ns#" xmlns:sodipodi="http://sodipodi.sourceforge.net/DTD/sodipodi-0.dtd" xmlns:svg="http://www.w3.org/2000/svg"><defs id="defs48"/><g id="Window_screen_security_icon" transform="translate(-21.874,-21.873)"><g id="g40"><path d="m 490.121,255.995 c 0,-129.091 -104.694,-234.122 -234.125,-234.122 -129.091,0 -234.122,105.031 -234.122,234.122 0,129.428 105.031,234.132 234.122,234.132 129.431,0 234.125,-104.704 234.125,-234.132 z" id="path4" style="clip-rule:evenodd;fill:#90dfaa;fill-rule:evenodd"/><path d="m 490.121,255.995 c 0,-4.741 0,-9.491 -0.337,-14.228 L 378.32,138.766 c -4.75,0 -6.443,3.044 -11.184,3.044 -71.836,0 -143.668,0 -215.161,0 -5.078,0 -9.828,0 -14.9,0 0,5.082 0,9.828 0,14.906 0,8.135 0,16.271 0,24.733 0,53.534 0,107.417 0,160.945 v 0 l -3.395,11.858 c 24.06,10.847 145.36,134.163 150.775,134.163 115.887,-13.881 205.666,-112.811 205.666,-232.42 z" id="path6" style="clip-rule:evenodd;fill:#82c999;fill-rule:evenodd"/><path d="M 148.595,178.405 H 363.742 V 339.351 H 148.595 Z M 378.32,339.351 v 14.901 H 363.742 148.595 133.68 v -14.901 0 -160.946 -25.07 -14.569 h 14.915 215.147 14.578 v 14.569 25.07 z" id="path8" style="clip-rule:evenodd;fill:#324a5e;fill-rule:evenodd"/><path d="m 317.322,158.407 c 0,5.429 4.415,9.828 9.829,9.828 5.086,0 9.481,-4.399 9.481,-9.828 0,-5.418 -4.396,-9.813 -9.481,-9.813 -5.414,0 -9.829,4.395 -9.829,9.813 z" id="path10" style="clip-rule:evenodd;fill:#90dfaa;fill-rule:evenodd"/><path d="m 344.096,158.407 c 0,5.429 4.404,9.828 9.828,9.828 5.414,0 9.818,-4.399 9.818,-9.828 0,-5.418 -4.404,-9.813 -9.818,-9.813 -5.424,0 -9.828,4.395 -9.828,9.813 z" id="path12" style="clip-rule:evenodd;fill:#ffd05b;fill-rule:evenodd"/><path d="m 290.224,158.407 c 0,5.429 4.405,9.828 9.818,9.828 5.424,0 9.827,-4.399 9.827,-9.828 0,-5.418 -4.403,-9.813 -9.827,-9.813 -5.413,0 -9.818,4.395 -9.818,9.813 z" id="path14" style="clip-rule:evenodd;fill:#fd8469;fill-rule:evenodd"/><rect height="160.946" id="rect16" style="clip-rule:evenodd;fill:#ffffff;fill-rule:evenodd" width="215.147" x="148.595" y="178.405"/><rect height="10.501" id="rect18" style="clip-rule:evenodd;fill:#e6e6e6;fill-rule:evenodd" width="109.091" x="221.44501" y="208.22099"/><rect height="10.501" id="rect20" style="clip-rule:evenodd;fill:#e6e6e6;fill-rule:evenodd" width="109.091" x="221.44501" y="253.966"/><rect height="28.122" id="rect22" style="clip-rule:evenodd;fill:#90dfaa;fill-rule:evenodd" width="28.455" x="181.80099" y="244.812"/><rect height="10.511" id="rect24" style="clip-rule:evenodd;fill:#e6e6e6;fill-rule:evenodd" width="109.091" x="221.44501" y="299.35501"/><rect height="28.124001" id="rect26" style="clip-rule:evenodd;fill:#ffd05b;fill-rule:evenodd" width="28.455" x="181.80099" y="290.215"/><rect height="28.118999" id="rect28" style="clip-rule:evenodd;fill:#fd8469;fill-rule:evenodd" width="28.455" x="181.80099" y="199.41701"/><path d="m 347.144,389.49 -29.821,-27.099 c -15.24,-13.222 -24.396,-29.825 -26.762,-46.761 -0.337,-3.048 -0.674,-5.765 -0.674,-8.813 v -44.385 c 0,0 47.092,-10.843 57.594,-20.329 10.511,9.486 57.603,20.329 57.603,20.329 v 44.385 c 0,3.048 -0.684,5.765 -1.02,8.813 -2.039,16.936 -11.184,33.539 -26.427,46.761 z" id="path30" style="clip-rule:evenodd;fill:#253645;fill-rule:evenodd"/><path d="m 395.245,315.973 c 0.346,-2.712 0.346,-4.755 0.346,-7.462 v -36.932 c 0,0 -39.302,-9.146 -48.11,-17.282 v 61.675 h 47.764 z" id="path32" style="clip-rule:evenodd;fill:#ffffff;fill-rule:evenodd"/><path d="m 347.48,253.966 c -8.818,8.136 -48.11,17.276 -48.11,17.276 v 37.269 c 0,2.707 0,4.75 0.335,7.462 h 47.775 z" id="path34" style="clip-rule:evenodd;fill:#fd8469;fill-rule:evenodd"/><path d="m 300.042,315.973 c 2.04,14.56 9.827,28.114 22.368,39.294 l 25.07,22.03 v -61.324 z" id="path36" style="clip-rule:evenodd;fill:#ffffff;fill-rule:evenodd"/><path d="m 394.572,315.973 c -1.692,14.56 -9.818,28.114 -22.021,39.294 l -25.07,22.03 v -61.324 z" id="path38" style="clip-rule:evenodd;fill:#fd8469;fill-rule:evenodd"/></g></g><g id="Layer_1" transform="translate(-21.874,-21.873)"/></svg>