<?xml version="1.0" ?><svg enable-background="new 0 0 64 64" version="1.1" viewBox="0 0 64 64" xml:space="preserve" xmlns="http://www.w3.org/2000/svg" xmlns:xlink="http://www.w3.org/1999/xlink"><g id="row_4"><g id="teamwork"><path d="M56.7,39.3c0.1-0.1,0.3-0.2,0.4-0.2c0.6-0.2,1.2-0.2,1.8,0.1c0.7,0.3,1.2,1.1,1.2,1.8c0,0.9-0.3,1.5-0.9,2    c-0.1,0-0.1,0.1-0.2,0.1c-1.8,1.2-3.6,2.2-5.5,3.2c1.9-0.4,3.8-0.9,5.4-1.9c0.5-0.3,1.1-0.4,1.7-0.2c0.9,0.3,1.4,1.3,1.3,2.2    c0,0.2-0.1,0.4-0.2,0.6c-0.1,0.3-0.3,0.5-0.6,0.7c-3.9,2.6-8.7,4.1-13.5,5c-2,0.4-4,0.5-6,0.4c-2.8-0.2-5.5,0-8.2,0.3    c-5.4,0.6-14.2,3-21.2,5.6c-4.6-3.4-8.2-7.8-10.6-13c2.4-0.3,6.2-0.4,8.4-0.7c3-0.5,5.9-1,8.8-1.5c7.3-1.4,13.8-5.8,17.9-12    c0.7,0.9,1.4,1.8,2,2.7c4.6-2.4,9.6-4.1,14.7-5.3c0.1,0,0.1,0,0.2,0c0.5-0.1,1.1,0,1.7,0.4c0.6,0.5,0.9,1.2,0.9,1.9    c0,0.7-0.4,1.2-0.8,1.6c-0.1,0.1-0.2,0.2-0.3,0.2c-2.4,1.5-4.8,2.7-7.3,3.9c2.9-0.9,5.6-1.7,8.3-3.1c0.6-0.3,1.3-0.4,2,0    c0.7,0.3,1.1,1.1,1.2,1.8c0.1,0.8-0.3,1.5-0.9,2c-0.1,0.1-0.2,0.1-0.3,0.2c-2.6,1.6-5.3,3.2-8.1,4.5    C52.3,41.5,54.6,40.6,56.7,39.3z" fill="#FFCCBC"/><path d="M38.6,53.3c0.1,0.5-0.1,1-0.5,1.4c-0.6,0.7-1.7,0.9-2.5,0.5c-0.5-0.3-0.8-0.8-1-1.4    c-0.4-1.9-1.3-3.6-2.2-5.4c0.5,2.1,0.9,4.2,1.3,6.3c0,0.1,0,0.1,0,0.2c0.1,0.7-0.2,1.5-0.9,2c-0.6,0.5-1.5,0.6-2.2,0.3    c-0.6-0.3-1.1-0.8-1.3-1.3c-0.1-0.2-0.1-0.3-0.1-0.5c-0.5-2.5-1.3-4.8-2.2-7.2c0.9,3,1.4,6.1,2,9.1c0,0.1,0,0.2,0.1,0.3    c0,0.7-0.2,1.4-0.9,2c-0.6,0.5-1.4,0.6-2.1,0.3c-0.7-0.3-1.2-0.9-1.3-1.6c-0.7-3-1.9-5.6-3.2-8.4c0.8,2.7,1.4,5.3,1.9,8.1    c0,0.1,0,0.3,0.1,0.4c0,0.6-0.2,1.2-0.6,1.7c-0.4,0.4-1,0.7-1.7,0.6c-0.1,0-0.2,0-0.3,0c-0.7-0.1-1.1-0.5-1.4-1    c0-0.1-0.1-0.1-0.1-0.2c-2.6-4.8-4.7-9.9-6-15.2c-1,0.2-2.1,0.4-3.1,0.5c1.8-7.2,0.8-14.9-3-21.4c-1.6-2.7-3.2-5.3-4.8-7.9    c2.4-4.3,5.7-8,9.6-10.9c3.1,7.3,8.3,18,12.1,23.5c1.6,2.3,3.2,4.5,5.2,6.5c1.4,1.5,2.7,3.1,3.7,4.8    C35.8,43.9,37.9,48.6,38.6,53.3z" fill="#FFCC80"/><path d="M62.2,17.5c-2.4,0.3-6,1-8.2,1.3c-2.9,0.5-5.8,1-8.7,1.5c-7.3,1.4-13.8,5.8-17.9,12.1    c-0.7-0.9-1.4-1.8-2-2.7c-4.6,2.3-9.6,4.1-14.7,5.2c-0.1,0-0.1,0-0.2,0c-0.5,0.1-1.1,0-1.7-0.4c-0.6-0.5-0.9-1.2-0.9-1.9    C8,32,8.3,31.4,8.8,31c0.1-0.1,0.2-0.1,0.3-0.2c2.4-1.4,4.8-2.7,7.3-3.9c-2.9,0.9-5.6,1.7-8.3,3.1c-0.6,0.3-1.3,0.4-2,0    c-0.7-0.3-1.1-1-1.2-1.8c-0.1-0.8,0.3-1.5,0.9-2c0.1-0.1,0.2-0.1,0.3-0.2c2.6-1.6,5.3-3.2,8.1-4.5c-2.3,0.9-4.6,1.8-6.8,3.1    c-0.1,0.1-0.3,0.2-0.4,0.2c-0.6,0.2-1.2,0.2-1.8-0.1c-0.7-0.4-1.2-1.1-1.2-1.9c0-0.8,0.3-1.5,0.9-2c0.1,0,0.1-0.1,0.2-0.1    c1.8-1.2,3.7-2.2,5.5-3.2c-1.9,0.4-3.8,0.9-5.4,1.9c-0.5,0.3-1.1,0.4-1.7,0.2c-0.9-0.3-1.4-1.2-1.3-2.2c0-0.2,0.1-0.4,0.2-0.6    c0.1-0.3,0.3-0.5,0.6-0.7c3.9-2.6,8.7-4.1,13.5-5c2-0.4,4-0.5,6-0.4c2.8,0.2,5.5,0,8.2-0.3c5.5-0.7,14.2-3.1,21-5.7    C56.2,8.2,59.8,12.5,62.2,17.5z" fill="#FFCDD2"/><g><path d="M59,44.4c-0.2-0.3-0.4-0.6-0.6-0.9c-1.6,1-3.2,2-4.9,2.8C55.4,45.9,57.3,45.4,59,44.4     C59,44.4,59,44.4,59,44.4z" fill="#935F2F"/><path d="M55.9,39.1c-1.9,1.2-3.9,2.3-5.9,3.3c2.1-0.8,4.2-1.6,6.2-2.8C56.1,39.5,56,39.3,55.9,39.1z" fill="#935F2F"/><path d="M54,34.8c-0.1-0.3-0.2-0.6-0.3-1c-2,1.2-4,2.2-6.1,3.2C49.8,36.4,52,35.7,54,34.8z" fill="#935F2F"/><path d="M30.7,24.3c1,1.8,2.3,3.4,3.7,4.8c1.6,1.6,3,3.4,4.3,5.2c4.5-2.3,9.2-3.9,14.1-5.1     c-0.4-3.4-0.2-6.9,0.7-10.3c-1,0.2-2.1,0.3-3.1,0.5C49,14.1,47,9.1,44.4,4.2c0-0.1-0.1-0.1-0.1-0.2c-0.3-0.5-0.7-0.9-1.4-1     c-0.1,0-0.3,0-0.4,0c-0.6,0-1.2,0.2-1.6,0.6c-0.5,0.5-0.7,1.1-0.6,1.7c0,0.1,0,0.3,0,0.4c0.5,2.8,1.2,5.4,2,8.1     c-1.2-2.8-2.5-5.4-3.2-8.4c-0.2-0.7-0.6-1.3-1.3-1.6c-0.7-0.3-1.5-0.2-2.1,0.3c-0.7,0.5-0.9,1.3-0.9,2c0,0.1,0,0.2,0.1,0.3     c0.6,3.1,1.1,6.1,2,9.1c-0.9-2.3-1.8-4.7-2.2-7.2c0-0.2,0-0.3-0.1-0.5c-0.2-0.6-0.6-1.1-1.3-1.3C32.5,6.4,31.7,6.5,31,7     c-0.6,0.5-0.9,1.3-0.8,2c0,0.1,0,0.1,0,0.2c0.3,2.1,0.8,4.2,1.3,6.3c-0.9-1.7-1.8-3.5-2.2-5.4c-0.1-0.5-0.4-1.1-1-1.4     c-0.8-0.5-1.9-0.3-2.5,0.5c-0.3,0.4-0.5,0.9-0.5,1.4C26.1,15.4,28.2,20.1,30.7,24.3z" fill="#6D4C41"/><path d="M49,52.4c1.1,2.3,2.2,4.5,3,6.4c3.8-2.9,7-6.5,9.3-10.7c-0.1-0.1-0.2-0.3-0.3-0.4     C57.6,50.1,53.3,51.5,49,52.4z" fill="#935F2F"/></g></g></g><g id="row_3"/><g id="row_2"/><g id="row_1"/></svg>